<svg fill="none" height="1873" viewBox="0 0 1580 1873" width="1580" xmlns="http://www.w3.org/2000/svg" xmlns:xlink="http://www.w3.org/1999/xlink"><linearGradient id="a" gradientUnits="userSpaceOnUse" x1="793.305" x2="787.742" y1="235.855" y2="1680.99"><stop offset="0" stop-color="#d0e6ff"/><stop offset="1" stop-color="#f0f7ff"/></linearGradient><linearGradient id="b" gradientUnits="userSpaceOnUse" x1="436.391" x2="915.912" y1="663" y2="1468.65"><stop offset="0" stop-color="#f2c7c7" stop-opacity="0"/><stop offset="1" stop-color="#fff"/></linearGradient><linearGradient id="c"><stop offset="0" stop-color="#deeeff" stop-opacity="0"/><stop offset="1" stop-color="#fff"/></linearGradient><linearGradient id="d" gradientUnits="userSpaceOnUse" x1="1385.5" x2="1329" xlink:href="#c" y1="1343" y2="1198"/><linearGradient id="e" gradientUnits="userSpaceOnUse" x1="169.481" x2="194.504" xlink:href="#c" y1="175.92" y2="64.8939"/><linearGradient id="f" gradientUnits="userSpaceOnUse" x1="486.744" x2="477.269" xlink:href="#c" y1="861.953" y2="794.902"/><linearGradient id="g" gradientUnits="userSpaceOnUse" x1="1235.66" x2="1196.45" xlink:href="#c" y1="696.889" y2="545.307"/><linearGradient id="h" gradientUnits="userSpaceOnUse" x1="351" x2="305.141" xlink:href="#c" y1="1575" y2="1790.32"/><linearGradient id="i" gradientUnits="userSpaceOnUse" x1="587.512" x2="587.472" y1="1678.96" y2="1784.7"><stop offset="0" stop-color="#cae3fe"/><stop offset="1" stop-color="#beddfe"/></linearGradient><linearGradient id="j"><stop offset="0" stop-color="#c1d9f1"/><stop offset="1" stop-color="#6ca7ab"/></linearGradient><linearGradient id="k" gradientUnits="userSpaceOnUse" x1="411.125" x2="411.068" xlink:href="#j" y1="1586.43" y2="1691.31"/><linearGradient id="l" gradientUnits="userSpaceOnUse" x1="824.425" x2="823.826" xlink:href="#j" y1="1431.16" y2="1659.7"/><linearGradient id="m" gradientUnits="userSpaceOnUse" x1="1040.31" x2="1039.67" xlink:href="#j" y1="1426.09" y2="1623.6"/><linearGradient id="n" gradientUnits="userSpaceOnUse" x1="1223.03" x2="1222.84" xlink:href="#j" y1="1527.69" y2="1655.54"/><linearGradient id="o" gradientUnits="userSpaceOnUse" x1="1118.96" x2="1118.85" xlink:href="#j" y1="1571.38" y2="1663.17"/><linearGradient id="p" gradientUnits="userSpaceOnUse" x1="681.403" x2="681.194" xlink:href="#j" y1="1562" y2="1662.7"/><linearGradient id="q" gradientUnits="userSpaceOnUse" x1="1012.37" x2="1012.23" xlink:href="#j" y1="1519.77" y2="1561.32"/><linearGradient id="r" gradientUnits="userSpaceOnUse" x1="1400.2" x2="1398.84" xlink:href="#j" y1="1319.87" y2="1659.81"/><linearGradient id="s" gradientUnits="userSpaceOnUse" x1="1339.32" x2="1338.32" xlink:href="#j" y1="1312.49" y2="1646.62"/><linearGradient id="t" gradientUnits="userSpaceOnUse" x1="1138.08" x2="1137.1" xlink:href="#j" y1="1319.88" y2="1659.81"/><linearGradient id="u" gradientUnits="userSpaceOnUse" x1="1027.25" x2="1026.98" xlink:href="#j" y1="1506.21" y2="1659.81"/><linearGradient id="v"><stop offset="0" stop-color="#c4c9ce"/><stop offset="1" stop-color="#8a939e"/></linearGradient><linearGradient id="w" gradientUnits="userSpaceOnUse" x1="375.92" x2="262.176" xlink:href="#v" y1="1782.4" y2="1818.55"/><linearGradient id="x" gradientUnits="userSpaceOnUse" x1="415.231" x2="346.231" xlink:href="#v" y1="1815.89" y2="1846.39"/><linearGradient id="y" gradientUnits="userSpaceOnUse" x1="402.634" x2="348.568" xlink:href="#v" y1="1818.13" y2="1842.32"/><linearGradient id="z" gradientUnits="userSpaceOnUse" x1="408.289" x2="360.851" xlink:href="#v" y1="1821" y2="1837.23"/><linearGradient id="A" gradientUnits="userSpaceOnUse" x1="416.583" x2="390.768" xlink:href="#v" y1="1824.74" y2="1830.01"/><linearGradient id="B" gradientUnits="userSpaceOnUse" x1="342.928" x2="266.676" xlink:href="#v" y1="1783.04" y2="1798.55"/><linearGradient id="C" gradientUnits="userSpaceOnUse" x1="378.004" x2="284.005" xlink:href="#v" y1="1800.56" y2="1836.52"/><linearGradient id="D" gradientUnits="userSpaceOnUse" x1="382.605" x2="319.881" xlink:href="#v" y1="1806.51" y2="1823.79"/><clipPath id="E"><path d="m0 0h1580v1873h-1580z"/></clipPath><g clip-path="url(#E)"><path d="m1580 0h-1580v1681h1580z" fill="url(#a)"/><path d="m1580 0h-1580v1681h1580z" fill="url(#b)"/><path d="m1578 1343h-790s152 2 208-14 118-20 146-20 82 8 112 0 74-34 100-34 50-17 50-17c-92.94 0-145.06 0-238 0 0 0 194-17.81 230-30.43s60-.39 72 0 23.21-32.61 78.61-29.61 55.39 0 55.39 0z" fill="url(#d)"/><path d="m-53.1201 171.859c.4504 2.357 2.5116 4.061 4.9112 4.061h665.7279c1.816 0 2.559-13.533.796-13.97-64.531-15.965-135.976-19.957-168.241-19.957-32.266 0-94.492 7.983-129.062 0-34.57-7.982-85.272-33.926-115.233-33.926-15.787 0-30.934-4.71-41.732-9.1663-4.664-1.9247-3.196-7.7975 1.849-7.7975h130.529c6.407 0 6.896-10.6666.521-11.3054-58.601-5.8716-119.783-13.0542-139.565-19.0591-41.484-12.5929-69.1402-.3892-82.9682 0-13.828.3891-26.7456-32.5398-90.585-29.5463-4.3868.2057-8.4721.3832-12.2766.5353-6.0487.2417-42.9756 44.3416-41.8394 50.2876z" fill="url(#e)"/><path d="m-157 777s182 22 212 22 30 16 76 14 56 4 84 0l222 12s-220 12-242 12 2 12 2 12l523 12s-521-2-595 0-94 0-94 0l-94 1z" fill="url(#f)"/><path d="m617 694s270 5 348 0 167 0 212 2 264 .22 264 .22l96 .78-8-201s-86 51-130 51-29-8-104 1-73 24-118 33-46-13-98-13-59 44-115 45-35-29-119-5-103 51-139 48-101-30-143-15-159 32-159 32 418.46 2.777 466.144.315z" fill="url(#g)"/><path d="m284 1674.22h317l96 .78-8-201s-86 51-130 51-33.5 52-108.5 61-79.5-25.5-127.5-32.5c-45 9-84-19-136-19s-7 55.5-63 56.5-24.9999-66-119-5l119 88.22z" fill="url(#h)"/><path d="m1173.05 1661.7h-1175.99849v123h1175.99849z" fill="url(#i)"/><path d="m.231201 1678.39 978.999799-4-838.179-18.69-139.00049 3z" fill="#fff" fill-opacity=".1"/><path d="m-9.94916 1716.7h1175.99916v7h-1175.99916z" fill="#fff" fill-opacity=".1"/><path d="m-8.94916 1732.7h1175.99916v22h-1175.99916z" fill="#fff" fill-opacity=".1"/><path d="m813.48 1660.42-807.66035 3.89-.43-4.17s117.43035-25.9 143.43035-43.59 48-5.06 48-5.06l122.18 31.51s156.82-76.17 165.82-73.64 191.74 85.5 191.74 85.5z" fill="url(#k)"/><path d="m990.372 1393.86-37.43 17.16-88.38 73.4-61.35 44.81-163.16 130.47h360.998l6.21-75.39z" fill="url(#l)"/><path d="m990.371 1393.86v19.06l-11.44 5.25h11.44v22.87l-29.11 13.83h19.75l-28.07 20.02-20.8 3.33-21.83 10.01h23.91l-7.28 7.15-11.44 2.86 20.8 20.5-9.36 16.21-7.28 3.33 8.32 3.34-1.04 14.78-16.63 6.67 42.63-6.67 30.15 20.02 42.629 47.18 92.54-10.48 50.96-48.14-16.06-43.56-21.38-14.6z" fill="url(#m)"/><path d="m1408.37 1655.54h-247.47l-124.78-35.27v-22.88l20.8-23.84 35.35 15.26-12.48-21.93v-10.48l-33.27-49.58 71.74 45.76 26 16.21-4.16-40.04 2.08-12.39-10.4-9.54 101.9 69.6 18.72 4.76 103.98 62.92z" fill="url(#n)"/><path d="m973.732 1646.01 22.88-24.79-22.88-22.88v-23.83l-20.79-18.11 68.618 35.27 47.83 31.46 58.23 1.9 155.97 38.14-330.538-3.47z" fill="url(#o)"/><path d="m782.902 1545.56-17.121 30.86-125.729 83.28-61 3 67.15-42.43 40.28-10.49z" fill="url(#p)"/><path d="m1026.47 1512.99 10.27 15.71-48.938 32.62z" fill="url(#q)"/><path d="m1578.23 1514.39v-17l-125.2-142.88-67.67-45.06-49.54-45.06-89.42 139.83-25.73 196.57 42.64 59.02z" fill="url(#r)"/><path d="m1301.98 1264.39 13.29-6.43h20.54l76.13 67h23l137.93 175.56-6 14.76-19.3-1.55 2.42-16.31-64.21-94.77 7.25 19.42-77.34-87.78 7.25 23.3-82.17-81.57-8.54 15.57 42.29 43.5-49.54-38.06 14.5 35 23 3.88 71.3 73-48.34-31.07-21.75 9.32 43.5 51.66-45.92-33-33.84 33 4.83 15.15 16.92-4.66 14.5-10.49 31.42 4.27-9.67 19 124.47 122.35-105.13-86.23v9.32l6 9.32v10.1l41.09 39.62-66.46-52.82-12.17 16.33 25.38 28-37.38-24.89-13.29 23.3 25.38 35.73-38.67-31.07-16.92 14 21.75 24.08-37.46-28.74-23 20.2-106.34 55.93-68.88-14.76 95.46-96.33 13.29-70.69-59.21-2.72 59.21-62.53 52-96.69z" fill="url(#s)"/><path d="m955.171 1575.13 10.88-17.86 50.749-44.28h9.67l-30.209 39.62 182.459-174.01 20.55-8.55 102.71-105.65v20.2l-15.71 13.21-14.5 13.2 36.25-16.31-7.25 30.3-10.87 8.54 10.87 4.66-6.04 10.88 44.71-7.77 15.71 8.54-54.38 21.75-32.62 27.19-97.88 55.16 118.42-50.49 66.46-16.32-60.42 59.04-89.42 69.14 159.51-59.82 20.54 18.65-32.63 29.52 15.71 1.55-35.04 42.73-27.79 18.64-56.8 13.98-4.83 10.1-85.8 37.29-2.42 3.88 123.26-41.17-7.25 16.31-18.13 15.54 9.67 37.29h-211.47-163.129z" fill="url(#t)"/><path d="m840.371 1659.81 125.68-102.54v17.09l-16.92 20.19-2.42 13.99-29 37.28 70.09-62.14 55.579-26.41-67.669 66.8 67.669-48.16 70.09-18.64 55.59-57.49 43.5-18.64-65.25 99.43-62.84 38.84-26.93 40.4z" fill="url(#u)"/><path d="m438.052 1652.7s287.65-4.11 395.83-18.56 145.17-18.44 291.168-39.44c146-21 314.79-24.23 314.79-24.23v113.28l-1349.7885-20.05z" fill="#5fcca2"/><path d="m710.511 1729.39s0-20-25.73-21.29c-16.55-.86-25.38 9.48-29.58 17-3.57-1.94-9.16-3-17.88-1 0 0-6.65-33.71-40.36-31.49s-30 29.72-30 29.72-26.79-10.2-31.22 24.84h197.83s-2.22-21.78-23.06-17.78z" fill="#028a85"/><path clip-rule="evenodd" d="m597.911 1747.16c1.717-10.7 5.205-21.04 10.32-30.59.65-1.18 2.37-.13 1.71 1.05-5.598 10.42-9.2 21.79-10.619 33.53-.027.19-.105.38-.227.53s-.283.27-.466.34c-.184.07-.382.09-.575.06-.193-.04-.374-.12-.523-.25-.137.14-.31.23-.499.27-.188.04-.384.02-.564-.05-.179-.07-.335-.19-.448-.35-.113-.15-.178-.34-.189-.53.289-7.6-.187-15.21-1.42-22.72-4.568-4.6-9.918-8.36-15.8-11.09-1.17-.54-.16-2.26 1-1.72 5.189 2.41 9.978 5.61 14.2 9.47-1.423-7.26-3.55-14.37-6.35-21.22-.49-1.19 1.44-1.7 1.921-.53 3.175 7.77 5.489 15.87 6.899 24.14l.291.29c.174.19.271.43.271.68 0 .26-.097.5-.271.69.917 5.96 1.365 11.97 1.339 18zm-48.629 3.31-1.17-12.08c-.13-1.3 1.87-1.29 1.99 0l1.18 12.08c.12 1.28-1.88 1.27-2 0zm13.499-16.69-4.34 5 1.28-9.2c.17-1.26-1.75-1.8-1.92-.53l-1.75 12.59c-.104.2-.136.44-.09.66l-1.18 8.51c-.17 1.26 1.75 1.8 1.92.53l1.24-8.92 6.26-7.27c.83-.92-.58-2.34-1.42-1.37zm78.8 19.12c-.231-7.04-2.104-13.92-5.47-20.11-.61-1.13 1.12-2.14 1.73-1 3.524 6.5 5.489 13.72 5.74 21.11 0 1.29-2 1.28-2 0zm45.84-15.24c-2.883 5.35-4.703 11.21-5.36 17.25-.14 1.27 1.85 1.26 2 0 .631-5.69 2.356-11.2 5.08-16.24.61-1.13-1.11-2.14-1.72-1.01zm-2.04-14.58c-3.396 2.99-6.053 6.73-7.76 10.92-.017.04-.037.08-.06.12 1.494 6.68 2.355 13.48 2.57 20.32 0 1.29-2 1.28-2 0-.369-12.08-2.797-24.01-7.18-35.27-.47-1.2 1.46-1.72 1.92-.53 1.563 4.05 2.882 8.18 3.95 12.39 1.765-3.55 4.192-6.72 7.15-9.36.96-.85 2.41.55 1.41 1.41z" fill="#2f3236" fill-rule="evenodd"/><path d="m1101.73 1754.72c-8.03 9.31-19.91 15.2-33.17 15.2-15.59 0-29.29-8.15-37.04-20.43-2.61 11.43-12.84 19.96-25.06 19.96-.12 0-.25 0-.37 0-2.45 16.53-16.698 29.21-33.908 29.21-18.933 0-34.281-15.35-34.281-34.28s15.348-34.28 34.281-34.28c3.995 0 7.831.68 11.396 1.94 4.259-8.31 12.908-13.99 22.882-13.99 7.17 0 13.66 2.94 18.32 7.68.22-23.99 19.74-43.37 43.78-43.37 23.32 0 42.39 18.24 43.71 41.23 3.91-2.41 8.52-3.8 13.45-3.8 14.2 0 25.7 11.51 25.7 25.7s-11.5 25.7-25.7 25.7c-10.94 0-20.28-6.84-23.99-16.47z" fill="#028a85"/><path d="m20.8101 1467.76c3.6122-16.87 27.6783-16.87 31.2904 0l39.096 182.54c7.4635 34.85-19.1027 67.71-54.7412 67.71-35.638451 0-62.2046-32.86-54.7411-67.71z" fill="#006167"/><path d="m44.9115 1630.46-6.6 8.61v-12.94c0-3.47-5.39-3.47-5.39 0v40.06l-20.31-22.21c-2.35-2.57-6.14999 1.25-3.80999 3.81l24.11999 26.37v66.95c0 3.47 5.39 3.47 5.39 0v-93.38c.1742-.14.3318-.3.47-.48l10.79-14.07c2.11-2.79-2.57-5.44-4.66-2.72z" fill="#2f3236"/><path d="m-11.8171 1493.23c2.52952-15.48 19.38255-15.48 21.9121 0l27.3781 167.61c5.2266 32-13.3772 62.17-38.334169 62.17-24.956931 0-43.560731-30.17-38.334131-62.17z" fill="#028a85"/><path d="m4.88155 1652.18-5.440005 7.1v-10.67c0-2.86-4.449995-2.87-4.449995 0v33l-16.76005-18.22c-1.94-2.12-5.07 1-3.14 3.14l19.90005 21.76v55.23c0 2.86 4.449995 2.87 4.449995 0v-77c.144768-.12.275612-.25.390002-.4l8.890003-11.73c1.73995-2.23-2.12-4.45-3.84-2.21z" fill="#2f3236"/><path d="m112.722 1668.68-3.94 5.14v-7.72c0-.43-.17-.84-.472-1.14s-.711-.47-1.138-.47-.837.17-1.139.47-.471.71-.471 1.14v23.91l-12.1205-13.25c-1.4-1.53-3.67.75-2.27 2.27l14.3905 15.74v39.95c0 .43.169.84.471 1.14s.712.47 1.139.47.836-.17 1.138-.47.472-.71.472-1.14v-55.73c.104-.09.197-.18.28-.29l6.44-8.4c1.26-1.64-1.53-3.25-2.78-1.62z" fill="#2f3236"/><path d="m1199.96 1464.98c2.4-1.68 4.96-3.12 7.63-4.3l-8.9-50.27c-.58-3.28-2.29-6.25-4.84-8.4-2.56-2.14-5.78-3.31-9.11-3.31-3.34 0-6.56 1.17-9.11 3.31-2.55 2.15-4.27 5.12-4.85 8.4l-14.7 83c6.6-.75 12.89-3.16 18.3-7 9.18-6.26 16.44-15.02 25.58-21.43z" fill="#006167"/><path d="m1192.7 1640.85c-9.68 2.38-19.86-.9-28.84-5.23s-17.57-9.79-27.25-12.18l-.49-.09c-.78 16.11-.5 32.26.82 48.33.82 10.01 5.38 19.35 12.78 26.16 7.39 6.8 17.07 10.58 27.12 10.57h15.77c10.05.01 19.73-3.77 27.13-10.57 7.39-6.81 11.95-16.15 12.77-26.16 1.53-18.69 1.64-37.48.33-56.19-5.19 1.83-10.01 4.57-14.23 8.11-8.14 6.6-15.74 14.79-25.91 17.25z" fill="#028a85"/><path d="m1173.41 1552.88c8.89.21 14.48-9 20.58-15.46 6.68-6.88 15.49-11.29 25-12.51l-11.37-64.23c-2.67 1.18-5.23 2.62-7.63 4.3-9.13 6.39-16.4 15.17-25.58 21.48-5.41 3.84-11.7 6.25-18.3 7l-7.53 42.56c2.54 1.12 4.86 2.67 6.85 4.59 5.32 5.18 10.51 12.09 17.98 12.27z" fill="#028a85"/><path d="m1218.96 1524.9c-9.51 1.22-18.32 5.63-25 12.51-6.1 6.47-11.69 15.67-20.58 15.46-7.47-.18-12.66-7.08-18-12.29-1.99-1.92-4.31-3.47-6.85-4.59l-7.18 40.53c-2.74 15.48-4.49 31.12-5.24 46.82l.49.09c9.68 2.39 18.27 7.85 27.25 12.18s19.16 7.61 28.84 5.23c10.17-2.5 17.76-10.66 25.91-17.24 4.22-3.54 9.04-6.28 14.23-8.11-.89-13.07-2.48-26.09-4.75-39z" fill="#006167"/><path d="m1194.6 1640.07-7.7 10.05v-15.11c0-4-6.29-4.06-6.29 0v46.77l-23.71-25.92c-2.74-3-7.18 1.46-4.45 4.45l28.16 30.79v78.15c0 4 6.29 4.06 6.29 0v-109c.21-.17.39-.35.55-.56l12.59-16.43c2.45-3.23-3.01-6.37-5.44-3.19z" fill="#028a85"/><path d="m1580 1746h-1581v194h1581z" fill="#5fcca2"/><path d="m246.082 1721.49s0-28.15-36.28-30c-23.34-1.21-35.79 13.37-41.72 23.92-5-2.74-12.92-4.22-25.21-1.4 0 0-9.38-47.54-56.9205-44.41-47.54 3.13-42.29 41.91-42.29 41.91s-37.78-14.39-44.000001 35h278.999501s-3.179-30.65-32.579-25.02z" fill="#028a85"/><path d="m215.531 1733.15c-4.062 7.54-6.626 15.8-7.55 24.32-.2 1.8 2.62 1.78 2.81 0 .892-8.02 3.326-15.8 7.17-22.9.85-1.59-1.58-3.02-2.43-1.42z" fill="#2f3236"/><path clip-rule="evenodd" d="m103.901 1703.39c-7.2124 13.47-12.1297 28.05-14.5495 43.14.0365-8.52-.5988-17.03-1.9-25.45.13-.13.2334-.28.304-.44.0706-.17.107-.35.107-.53s-.0364-.36-.107-.53c-.0706-.16-.174-.31-.304-.44l-.4-.4c-1.9917-11.65-5.2545-23.06-9.73-34-.67-1.66-3.4-.93-2.71.75 3.9514 9.65 6.9555 19.67 8.97 29.9-5.9469-5.45-12.6915-9.95-20-13.36-1.63-.76-3.06 1.67-1.42 2.43 8.2976 3.85 15.8449 9.15 22.29 15.64 1.7343 10.57 2.4043 21.29 2 32 .0029.28.0886.55.2459.77.1573.23.3792.41.6371.51s.54.12.8103.06.5164-.2.7067-.4c.2127.18.4708.3.7466.35.2758.04.559.01.819-.09.2601-.1.4872-.27.6571-.5.1699-.22.2761-.48.3073-.76 2.0089-16.56 7.0963-32.6 14.9995-47.29.85-1.52-1.62-2.95-2.48-1.36zm-84.8495 30.76 1.65 17c.17 1.79 3 1.8 2.81 0l-1.65-17c-.17-1.76-2.99-1.76-2.81 0zm14.56.65 6.13-7.12c1.19-1.37 3.17.63 1.98 1.99l-8.83 10.26-1.75 12.58c-.24 1.79-2.96 1.02-2.71-.75l1.67-12c-.0694-.32-.0232-.65.13-.93l2.47-17.78c.24-1.79 2.96-1.02 2.71.75zm109.5595-8.52c4.744 8.72 7.385 18.44 7.71 28.36.07 1.81 2.88 1.81 2.81 0-.354-10.42-3.127-20.62-8.1-29.78-.85-1.59-3.28-.17-2.42 1.42zm69.471-13.69c-4.791 4.22-8.536 9.5-10.94 15.41-.04.05-.084.1-.13.15 2.109 9.42 3.324 19.01 3.63 28.66.06 1.81-2.75 1.81-2.81 0-.52-17.03-3.942-33.86-10.12-49.74-.66-1.7 2.06-2.42 2.71-.75 2.203 5.71 4.063 11.54 5.57 17.47 2.49-5 5.915-9.48 10.09-13.2 1.36-1.19 3.36.79 2 2z" fill="#2f3236" fill-rule="evenodd"/><path d="m365.231 1853.39c60.199 0 109-2.24 109-5s-48.801-5-109-5-109 2.24-109 5 48.801 5 109 5z" fill="#006167"/><path clip-rule="evenodd" d="m107.155 1751.14c-4.03 4.67-9.9963 7.63-16.6535 7.63-7.8367 0-14.7155-4.1-18.6072-10.27-1.2994 5.75-6.4396 10.04-12.5828 10.04-.0407 0-.0814 0-.122 0-.0213 0-.0426 0-.0639 0-1.2274 8.31-8.3863 14.68-17.0341 14.68-9.5104 0-17.22-7.71-17.22-17.22s7.7096-17.22 17.22-17.22c2.0111 0 3.9416.34 5.7358.98 2.1385-4.17 6.4784-7.02 11.4842-7.02 3.6078 0 6.8696 1.48 9.2107 3.87.0977-12.06 9.9007-21.8 21.9793-21.8 11.7125 0 21.2855 9.16 21.9435 20.71 1.965-1.21 4.279-1.91 6.757-1.91 7.124 0 12.9 5.78 12.9 12.9s-5.776 12.9-12.9 12.9c-5.495 0-10.187-3.44-12.047-8.27zm51.476 11.46c7.125 0 12.9-5.78 12.9-12.9s-5.775-12.9-12.9-12.9c-7.124 0-12.9 5.78-12.9 12.9s5.776 12.9 12.9 12.9zm84.53 4.12c7.717 0 14.584-3.63 18.985-9.28 2.168 2.11 5.13 3.41 8.395 3.41 6.644 0 12.03-5.39 12.03-12.03s-5.386-12.03-12.03-12.03c-1.365 0-2.677.23-3.901.65-2.389-10.77-11.993-18.82-23.479-18.82-8.998 0-16.842 4.94-20.966 12.26-3.554-4.12-8.81-6.72-14.674-6.72-10.703 0-19.38 8.68-19.38 19.38s8.677 19.38 19.38 19.38c6.205 0 11.728-2.92 15.275-7.45 4.257 6.76 11.787 11.25 20.365 11.25z" fill="#5fcca2" fill-rule="evenodd"/><path d="m1141.05 1680.83h13.18c.36 0 .71.14.97.4s.4.61.4.97v11.79c.01.18-.03.36-.09.53-.07.17-.17.33-.3.46s-.28.23-.45.3-.35.11-.53.11h-13.17v-14.54z" fill="#bee7d7"/><path d="m1141.05 1705.22h5.9c.36 0 .71.14.97.4s.4.61.4.97v11.8c0 .36-.14.71-.4.97s-.61.4-.97.4h-5.9z" fill="#5e7dcb"/><path d="m1227.75 1680.12h-32.03c-.83 0-1.5.67-1.5 1.5v11.54c0 .83.67 1.5 1.5 1.5h32.03c.83 0 1.5-.67 1.5-1.5v-11.54c0-.83-.67-1.5-1.5-1.5z" fill="#bee7d7"/><path d="m1309.91 1680.12h-32.03c-.83 0-1.5.67-1.5 1.5v11.54c0 .83.67 1.5 1.5 1.5h32.03c.83 0 1.5-.67 1.5-1.5v-11.54c0-.83-.67-1.5-1.5-1.5z" fill="#bee7d7"/><path d="m1287.8 1700.42h-32.03c-.83 0-1.5.67-1.5 1.5v11.54c0 .83.67 1.5 1.5 1.5h32.03c.83 0 1.5-.67 1.5-1.5v-11.54c0-.83-.67-1.5-1.5-1.5z" fill="#bee7d7"/><path d="m632.778 1760.53c-4.031 4.68-9.998 7.64-16.657 7.64-12.139 0-21.98-9.84-21.98-21.98s9.841-21.98 21.98-21.98c11.71 0 21.28 9.16 21.944 20.7 1.965-1.21 4.279-1.91 6.756-1.91 7.125 0 12.9 5.78 12.9 12.9s-5.775 12.9-12.9 12.9c-5.491 0-10.182-3.43-12.043-8.27z" fill="#5fcca2"/><path d="m1579.7 1476.28h-298.79v270.23h298.79z" fill="#ddfff2"/><path d="m1577.41 1723.99h-296.5v22.52h296.5z" fill="#bee7d7"/><path d="m1579.7 1463.14h-310.99v13.14h310.99z" fill="#fff"/><path d="m1268.71 1463.14 114.47-142.62h196.52v142.62z" fill="#028a85"/><path d="m1431.41 1547.59h-87.26v103.21h87.26z" fill="#028a85"/><path clip-rule="evenodd" d="m1431.41 1532.58v15.01h-87.26v29.09h87.26v5.63h-87.26v68.49h-5.63v-118.22z" fill="#006167" fill-rule="evenodd"/><path d="m1566.52 1547.59h-87.26v103.21h87.26z" fill="#028a85"/><path clip-rule="evenodd" d="m1566.53 1532.58v15.01h-87.27v29.09h87.27v5.63h-87.27v68.49h-5.62v-118.22z" fill="#006167" fill-rule="evenodd"/><path d="m1531.31 1664.25c-7.81 5.07-14.35 11.87-19.11 19.88s-7.62 17-8.34 26.29c-10.88-2.88-24.03 5.4-28.61 15.57-16.25-2.47-33.16 6.55-41.49 20.51h143.41v.69h2.29v-90.07c-8.08-2.19-16.53-2.69-24.82-1.46-8.29 1.22-16.23 4.15-23.33 8.59z" fill="#006167"/><path d="m1556.13 1701.15c-6.77-.01-13.45 1.5-19.56 4.41-6.12 2.91-11.5 7.15-15.76 12.41-7.26-2.66-15.26-2.4-22.34.71-7.07 3.12-12.66 8.84-15.61 15.99-5.29-2.11-11.2-2.03-16.43.22-5.24 2.25-9.36 6.49-11.47 11.78h124.59v-39c-7.07-4.27-15.17-6.52-23.42-6.52z" fill="#028a85"/><path d="m1548.81 1731.44c1.69-5.15 3.62-10.22 5.79-15.22.36-.83 1.57-.15 1.22.72-2.4 5.55-4.51 11.23-6.32 17v.13c.04.14.03.29-.03.43-.05.13-.15.24-.28.32-1.08 3.6-2.12 7.22-3 10.9-.22.89-1.57.51-1.36-.37.93-3.86 2.02-7.65 3.2-11.42-1.47-5.94-4.18-11.51-7.94-16.34-.55-.71.44-1.71 1-1 3.47 4.43 6.09 9.46 7.72 14.85z" fill="#006167"/><path d="m1507.61 1723.65c2.67 5.18 4.62 10.71 5.8 16.42.04.04.08.08.11.13.44 2.17.78 4.36 1 6.56.09.9-1.32.89-1.41 0-.26-2.09-.59-4.19-1-6.19-3.42-4.7-7.71-8.7-12.64-11.77-.77-.48-.06-1.7.71-1.22 4.24 2.67 8.02 6 11.21 9.86-1.17-4.53-2.85-8.92-5-13.08-.41-.8.81-1.52 1.22-.71z" fill="#006167"/><path d="m1491.65 1731.67c-.37-.82-1.59-.11-1.22.71l5.94 13.14c.37.82 1.59.11 1.22-.71z" fill="#006167"/><path d="m1470.72 1745.92-1-9.1c-.1-.9 1.3-.89 1.41 0l1 9.1c.1.9-1.31.89-1.41 0z" fill="#006167"/><path d="m1520.03 1757.49c-1.68.83-3.57 1.3-5.57 1.3-4.19 0-7.91-2.06-10.19-5.21-1.22 1.48-3.07 2.43-5.15 2.43-3.68 0-6.67-2.99-6.67-6.67s2.99-6.67 6.67-6.67c1.12 0 2.17.27 3.09.76 1.28-5.59 6.28-9.76 12.25-9.76 4.71 0 8.81 2.59 10.96 6.42 1.79-.95 3.84-1.49 6.01-1.49 7.11 0 12.88 5.77 12.88 12.88s-5.77 12.88-12.88 12.88c-4.94 0-9.24-2.79-11.4-6.87z" fill="#5fcca2"/><path d="m1461.3 1749.34c0 5.05-4.1 9.15-9.15 9.15s-9.15-4.1-9.15-9.15 4.1-9.15 9.15-9.15 9.15 4.1 9.15 9.15z" fill="#5fcca2"/><path d="m1291.06 1761.18c-8.03 9.31-19.91 15.2-33.17 15.2-15.59 0-29.29-8.15-37.04-20.43-2.61 11.43-12.84 19.96-25.06 19.96-.12 0-.25 0-.37 0-2.45 16.53-16.7 29.21-33.91 29.21-18.93 0-34.28-15.35-34.28-34.28s15.35-34.28 34.28-34.28c4 0 7.83.68 11.4 1.94 4.26-8.31 12.91-13.99 22.88-13.99 7.17 0 13.66 2.94 18.32 7.68.23-23.99 19.74-43.37 43.78-43.37 23.32 0 42.39 18.24 43.71 41.23 3.91-2.41 8.52-3.8 13.45-3.8 14.2 0 25.7 11.51 25.7 25.7s-11.5 25.7-25.7 25.7c-10.94 0-20.28-6.84-23.99-16.47z" fill="#5fcca2"/><path d="m1450.43 1413.1 129.48-56.92-.21-35.66h-82.36z" fill="#006167"/><path d="m1505.47 1302.38h-100.71v32.21h100.71z" fill="#f0f2f4"/><path d="m1465.44 1302.38h-60.68v32.21h60.68z" fill="#fff"/><path d="m1450.42 1341.79h-37.53v71.31h37.53z" fill="#ddfff2"/><path d="m1412.89 1334.6h84.45v40.03l-46.91 38.47v-28.39h-23.21c-.83 0-1.5-.67-1.5-1.5v-11.54c0-.83.67-1.5 1.5-1.5h23.21v-28.38h-37.54z" fill="#bee7d7"/><path d="m1412.89 1346.09h13.2c.37 0 .71.14.97.4s.4.61.4.97v11.79c0 .36-.14.71-.4.97s-.6.4-.97.4h-13.2z" fill="#bee7d7"/><path d="m1430.25 1815.01c-91.64 5.6-141.06 35.51-274.75 35.51-133.68 0-249.317-42.98-364.59-42.52-115.273.47-210.081 63.08-307.248 57.77s-283.034-33.94-369.721-33.1c-86.6883.85-114.941 14.12-114.941 14.12v77.21h1581v-88.54c-3.96-1.7-61.34-25.86-149.75-20.45z" fill="#fff"/><path d="m1157.95 1781.53c102.6 0 185.77-4.93 185.77-11.02s-83.17-11.02-185.77-11.02-185.768 4.93-185.768 11.02 83.168 11.02 185.768 11.02z" fill="#006167"/><path d="m364.741 1820.15c6.851-5.81 14.931-9.99 23.63-12.22.35-1.08 10.58-33.06-12.69-40.63-23.67-7.71-96.33 9.36-102.93 78.71h74.57c3.408-10.01 9.421-18.94 17.42-25.86z" fill="url(#w)"/><path d="m388.331 1808.03v-.1c-9.487 2.4-18.218 7.14-25.392 13.79-7.173 6.66-12.558 15.01-15.658 24.29h76.8s10.49-35.77-35.75-37.98z" fill="url(#x)"/><path d="m407.791 1811.94-57.32 26.59c-.49 1-.86 2-1.3 3l61.23-28.41c-.82-.4-1.69-.79-2.61-1.18z" fill="url(#y)"/><path d="m412.631 1814.39-48 31.6h4l46-30.26c-.633-.45-1.3-.89-2-1.34z" fill="url(#z)"/><path d="m394.431 1846.02h2.94l22.43-25.2c-.44-.58-.92-1.14-1.43-1.7z" fill="url(#A)"/><path d="m400.231 1846.02h57.25s.37-14.35-15.23-15.8-17.61 8.64-17.61 8.64c-.779-1.2-1.838-2.19-3.085-2.89-1.248-.69-2.646-1.07-4.075-1.11-4.77 0-6.42 6.74-6.42 6.74s-.93-2.06-5.32-2.71-5.51 7.13-5.51 7.13z" fill="#006167"/><path d="m352.431 1766.39c-1.05.14-2.11.3-3.19.48-22.12 27.96-46.084 54.42-71.73 79.19h3.16c25.669-24.93 49.643-51.54 71.76-79.67z" fill="url(#B)"/><path d="m390.761 1788.54c-38.275 9.98-73.276 29.8-101.53 57.48h3.19c27.591-26.49 61.488-45.5 98.48-55.23-.04-.75-.08-1.49-.14-2.25z" fill="url(#C)"/><path d="m327.012 1846.06c19.242-19.05 40.605-35.82 63.67-50-.09.97-.2 1.89-.32 2.83-.002 0-.004 0-.006 0-.425 3.07-1.092 6.09-1.994 9.05-9.487 2.4-18.219 7.14-25.392 13.79-7.173 6.66-12.558 15.01-15.658 24.29h-17.139c-.014.01-.027.03-.041.04z" fill="url(#D)"/><path d="m446.341 1735.13s0-12.8-16.5-13.66c-10.61-.55-16.28 6.08-19 10.88-2.29-1.24-5.87-1.92-11.47-.64 0 0-4.27-21.62-25.89-20.2s-19.25 19.06-19.25 19.06-17.18-6.54-20 15.93h126.9s-1.41-13.93-14.79-11.37z" fill="#028a85"/><g fill="#5fcca2"><path d="m757.079 1634.13c-.068-1.43-.228-2.85-.48-4.26l-1.357-7.57-.712-3.94-.761-3.59c-.059-.3-.221-.56-.458-.76-.237-.19-.534-.29-.841-.29s-.605.1-.842.29c-.237.2-.398.46-.458.76l-2.747 15.15c-.512 2.86-.651 5.77-.413 8.67.074.91.497 1.76 1.184 2.38s1.587.97 2.523.97h.529v5.54c.016.07.053.12.105.16.053.04.118.07.185.07s.132-.03.184-.07c.053-.04.09-.09.105-.16v-5.54h.348c.935 0 1.836-.35 2.523-.97.686-.62 1.109-1.47 1.184-2.38.166-1.48.233-2.97.199-4.46z"/><path d="m737.597 1639.11c-.037-.9-.124-1.8-.26-2.69l-.736-4.79-.385-2.49-.413-2.28c-.032-.19-.12-.36-.248-.48s-.29-.18-.456-.18-.327.06-.456.18c-.128.12-.216.29-.248.48l-1.489 9.59c-.277 1.81-.353 3.65-.224 5.48.041.58.27 1.12.642 1.51.372.4.86.62 1.367.62h.287v3.51c.009.04.029.07.057.1.029.02.064.04.1.04s.071-.02.1-.04c.028-.03.048-.06.057-.1v-3.51h.188c.507 0 .995-.22 1.367-.62.372-.39.602-.93.642-1.51.09-.93.126-1.87.108-2.82z"/><path d="m727.073 1636.13c-.068-1.43-.229-2.85-.482-4.26l-1.361-7.57-.714-3.94-.763-3.59c-.06-.3-.222-.56-.46-.76-.237-.19-.536-.29-.843-.29-.308 0-.606.1-.844.29-.238.2-.4.46-.46.76l-2.755 15.15c-.514 2.86-.654 5.77-.415 8.67.075.91.499 1.76 1.188 2.38s1.592.97 2.53.97h.531v5.54c.016.07.053.12.106.16s.118.07.185.07.132-.03.185-.07.09-.09.105-.16v-5.54h.349c.938 0 1.841-.35 2.53-.97s1.113-1.47 1.188-2.38c.167-1.48.234-2.97.2-4.46z"/><path d="m942.041 1614.24c-.067-1.46-.228-2.92-.48-4.36l-1.357-7.73-.712-4.02-.762-3.68c-.059-.3-.221-.57-.458-.76-.237-.2-.535-.31-.842-.31s-.604.11-.841.31c-.237.19-.399.46-.458.76l-2.749 15.48c-.513 2.93-.652 5.9-.414 8.86.075.93.498 1.81 1.185 2.44s1.588.99 2.524.99h.53v5.66c.016.07.053.12.105.17.053.04.118.06.185.06.066 0 .131-.02.184-.06.053-.05.09-.1.105-.17v-5.66h.348c.936 0 1.837-.36 2.524-.99s1.11-1.51 1.185-2.44c.166-1.51.232-3.03.198-4.55z"/><path d="m916.335 1620.36c-.038-.81-.128-1.63-.268-2.43l-.759-4.32-.397-2.25-.426-2.05c-.033-.17-.123-.32-.256-.43-.132-.11-.298-.17-.47-.17-.171 0-.337.06-.47.17-.132.11-.223.26-.256.43l-1.535 8.65c-.286 1.63-.364 3.29-.231 4.95.042.52.278 1 .662 1.36.384.35.887.55 1.41.55h.296v3.16c.008.04.029.07.058.09.03.03.066.04.103.04.038 0 .074-.01.103-.04.03-.02.05-.05.059-.09v-3.16h.194c.523 0 1.026-.2 1.41-.55.384-.36.62-.84.662-1.36.093-.85.13-1.7.111-2.55z"/></g><path clip-rule="evenodd" d="m948.167 1606.62c-.659-3.19-5.217-3.19-5.876 0l-9.586 46.41-3.96-23.15c-.341-1.99-2.696-1.99-3.036 0l-6.053 35.38c-.196-.02-.401-.04-.615-.05-1.171-.08-2.338.19-3.357.78-1.018.58-1.843 1.45-2.373 2.5-1.091-.49-2.323-.56-3.46-.19 0 0-1.29-6.53-7.81-6.1s-5.81 5.75-5.81 5.75-4.77 1.5-5.878 7.62l127.617 1.82h28.56c-2.39-18.83-16.8-13.94-16.8-13.94s2-14.81-16.11-16c-18.109-1.19-21.689 16.92-21.689 16.92-4.69-1.08-7.69-.47-9.61.53-2.26-4.02-7.01-9.57-15.9-9.11-3.287.17-5.792.9-7.701 1.92zm-65.206 68.85-11.598-.17c-1.68-2.19-2.518-5.3-1.968-8.52l6.314-36.9c.34-1.99 2.695-1.99 3.036 0l6.314 36.9c.564 3.3-.332 6.49-2.098 8.69z" fill="#006167" fill-rule="evenodd"/><path clip-rule="evenodd" d="m1118.78 1587.32c-3.85 4.49-7.84 9.16-13.46 9.02-4.94-.12-8.62-3.95-12.16-7.64-.7-.72-1.39-1.44-2.09-2.13-1.58-1.52-3.42-2.75-5.43-3.63l6-33.72c5.22-.59 10.21-2.49 14.5-5.53 3.68-2.53 6.98-5.56 10.28-8.6 3.21-2.95 6.42-5.9 9.99-8.4 1.89-1.33 3.9-2.47 6-3.41l9 50.89c-7.52.97-14.5 4.47-19.78 9.92-.96 1.02-1.9 2.12-2.85 3.23zm-21.03 74.59c7.12 3.43 15.18 6.03 22.85 4.14 6.39-1.57 11.5-5.96 16.56-10.31 1.32-1.14 2.64-2.27 3.97-3.35 3.35-2.8 7.17-4.97 11.28-6.42 1.04 14.83.95 29.71-.26 44.52-.65 7.93-4.27 15.33-10.12 20.72-5.86 5.4-13.53 8.39-21.49 8.39h-12.5c-7.96 0-15.63-2.99-21.48-8.39-5.86-5.39-9.47-12.79-10.13-20.72-1.05-12.74-1.27-25.53-.65-38.3l.38.07c5.61 1.38 10.74 4.06 15.88 6.75 1.9.99 3.79 1.98 5.71 2.9z" fill="#5fcca2" fill-rule="evenodd"/><path clip-rule="evenodd" d="m1132.35 1523.29c-2.1.94-4.11 2.08-6 3.41-3.54 2.48-6.72 5.4-9.91 8.34-3.33 3.06-6.66 6.12-10.41 8.68-4.29 3.04-9.28 4.94-14.5 5.53l11.65-65.79c.46-2.6 1.82-4.96 3.84-6.65 2.02-1.7 4.58-2.63 7.22-2.63s5.2.93 7.22 2.63c2.02 1.69 3.38 4.05 3.84 6.65zm-10.72 60.8c5.28-5.45 12.26-8.95 19.78-9.92l7.24 40.93c1.8 10.22 3.05 20.52 3.76 30.87-4.11 1.45-7.93 3.62-11.28 6.42-1.32 1.07-2.62 2.18-3.92 3.3-5.07 4.37-10.19 8.77-16.61 10.36-7.67 1.86-15.73-.71-22.85-4.14-1.92-.92-3.81-1.91-5.71-2.9-5.14-2.69-10.27-5.37-15.88-6.75l-.38-.07c.6-12.44 1.98-24.83 4.15-37.1l5.69-32.12c2.01.88 3.85 2.11 5.43 3.63.75.72 1.49 1.49 2.24 2.26 3.52 3.62 7.15 7.36 12.03 7.48 5.64.14 9.61-4.5 13.44-8.99.96-1.12 1.91-2.24 2.87-3.26z" fill="#028a85" fill-rule="evenodd"/><path d="m1122.11 1665.39-6.1 8v-12c0-3.21-5-3.21-5 0v37.06l-18.78-20.51c-2.17-2.37-5.69 1.16-3.53 3.53l22.31 24.39v61.92c0 3.21 5 3.21 5 0v-86.39c.16-.13.31-.28.43-.45l10-13c1.92-2.55-2.41-5.03-4.33-2.55z" fill="#2f3236"/><path clip-rule="evenodd" d="m1280.91 1476.28h298.79v16.65h-169.62v8.82c0 .83-.67 1.5-1.5 1.5h-32.03c-.83 0-1.5-.67-1.5-1.5v-8.82h-79.5v5.89c0 .36-.14.71-.4.97s-.61.4-.97.4h-13.17v-7.26h-.1zm0 58.17h.01v14.53h13.17c.37 0 .71-.14.97-.4s.4-.61.4-.97v-11.79c0-.36-.14-.71-.4-.97s-.6-.4-.97-.4h-13.17v-.01zm0 24.4h5.9c.36 0 .71.14.97.4s.4.61.4.97v11.79c0 .36-.14.71-.4.97s-.61.4-.97.4h-5.9zm.01 24.39h-.01l.01-.02zm0 0h13.17c.37 0 .71.14.97.4s.4.61.4.97v11.78c0 .36-.14.71-.4.97s-.6.4-.97.4h-13.17zm-.01 24.4h5.9c.36 0 .71.14.97.4s.4.61.4.97v11.79c0 .36-.14.71-.4.97s-.61.4-.97.4h-5.9zm.01 24.4h-.01l.01-.01zm0 0h13.17c.37 0 .71.14.97.4s.4.61.4.97v11.79c0 .36-.14.71-.4.97s-.6.4-.97.4h-13.17zm-.01 24.35h5.9c.36 0 .71.14.97.4s.4.61.4.97v11.79c0 .36-.14.71-.4.97s-.61.4-.97.4h-5.9zm146.75-147.98h-32.03c-.83 0-1.5.67-1.5 1.5v11.54c0 .83.67 1.5 1.5 1.5h32.03c.83 0 1.5-.67 1.5-1.5v-11.54c0-.83-.67-1.5-1.5-1.5zm-140.76 1.65h-5.9v14.53h5.9c.36 0 .71-.14.97-.4s.4-.61.4-.97v-11.79c0-.36-.14-.71-.4-.97s-.61-.4-.97-.4z" fill="#bee7d7" fill-rule="evenodd"/><path d="m961.232 1615.34c-.041-.88-.138-1.76-.29-2.63l-.82-4.67-.43-2.43-.46-2.22c-.036-.18-.134-.35-.277-.46-.143-.12-.323-.19-.508-.19-.186 0-.365.07-.508.19-.144.11-.241.28-.277.46l-1.66 9.35c-.31 1.77-.394 3.56-.25 5.35.045.56.301 1.09.716 1.47.415.39.959.6 1.524.6h.32v3.42c.009.04.032.07.063.1.032.02.071.04.112.04.04 0 .08-.02.111-.04.032-.03.054-.06.064-.1v-3.42h.21c.565 0 1.109-.21 1.524-.6.415-.38.671-.91.716-1.47.1-.91.14-1.83.12-2.75z" fill="#5fcca2"/><path d="m975.232 1614.34c-.041-.88-.138-1.76-.29-2.63l-.82-4.67-.43-2.43-.46-2.22c-.036-.18-.134-.35-.277-.46-.143-.12-.323-.19-.508-.19-.186 0-.365.07-.508.19-.144.11-.241.28-.277.46l-1.66 9.35c-.31 1.77-.394 3.56-.25 5.35.045.56.301 1.09.716 1.47.415.39.959.6 1.524.6h.32v3.42c.009.04.032.07.063.1.032.02.071.04.112.04.04 0 .08-.02.111-.04.032-.03.054-.06.064-.1v-3.42h.21c.565 0 1.109-.21 1.524-.6.415-.38.671-.91.716-1.47.1-.91.14-1.83.12-2.75z" fill="#5fcca2"/><path d="m1123.58 1865.24c37.72 0 68.3-3.81 68.3-8.52s-30.58-8.52-68.3-8.52-68.3 3.81-68.3 8.52 30.58 8.52 68.3 8.52z" fill="#3856a5" fill-opacity=".07"/><path d="m1196.95 1574.17s4.78 22.67 5.21 26.43 2.72 22.75 2.72 22.75h-12.15s-3-17.64-4-20.55-6-22.88-6-22.88z" fill="#c66f7e"/><path d="m1194.32 1758.29c3.4 2.57 7.23 4.51 11.32 5.71 6.25 1.67 8.94 3.27 10.43 5.18s-3.44 3.11-3.44 3.11h-23c-.6 0-1.18-.23-1.61-.64-.44-.42-.7-.98-.73-1.58l-.69-12.63z" fill="#3d2c56"/><path d="m1182.34 1695.39c-3.47-5.87-1.53-13.33-2.56-20.06-1.42-9.27-8-17.3-17.24-18.85 0 0 11.26 41.41 12.86 51.71s9.24 54 9.24 54l13.5-.36-4.11-57.36c-.94-.54-1.89-1.07-2.82-1.6-3.42-1.89-6.88-4.09-8.87-7.48z" fill="#3d2c56"/><path d="m1134.17 1630.57 9.06 133.43h16.35l3-107.5c9.25 1.55 15.81 9.58 17.24 18.85 1 6.74-.9 14.2 2.56 20.06 2 3.37 5.45 5.57 8.87 7.49.94.53 1.88 1.06 2.82 1.6l-5.1-71.27z" fill="#533a71"/><path d="m1144.23 1772.29s14.06-.36 16.73 0 4.79-3.51 3.13-5.19-5.21-6.35-10.32-6.84-10.55 3.74-10.55 3.74-3.41 6.05 1.01 8.29z" fill="#3d2c56"/><path d="m1162.44 1627.8c4.26-6 .33-14.67 3.08-21.47 3.18-7.86 14.14-10.63 16.65-18.74 1.35-4.35-.18-9-.92-13.49s.07-10.39 3.92-12.83l1.68 22.66 13.65-4.29s-9.24-36-14-38.86-20.4-5.49-20.4-5.49l-15.37-1.56s-19.72 6.75-22.56 11.9-8.71 34.29-8.71 34.29l14.39 2.81-1.17 50.49s7.08.72 14.74 1.24c2.18-.33 4.33-.81 6.44-1.43 3.24-.98 6.59-2.44 8.58-5.23z" fill="#ffb942"/><path d="m1186.57 1588.99.27-5.06-1.68-22.66c-3.84 2.44-4.66 8.34-3.92 12.83s2.27 9.14.92 13.49c-2.51 8.1-13.47 10.87-16.65 18.74-2.76 6.8 1.18 15.49-3.08 21.47-2 2.79-5.34 4.25-8.62 5.24-2.11.62-4.26 1.1-6.44 1.43 4.4.3 9 .54 12.55.54 9.77 0 29-1.78 29-1.78s-2.47-41.76-2.35-44.24z" fill="#e08605"/><path d="m1146.69 1510.19s-3.48-8.65-3.39-10.91c.15-3.62 3-7.12 6.25-8.51.73-.31 3.49-1 3-1.93-.43-.78-2.16-.53-2-1.88.14-1.06 2.41-1.61 3.19-1.82 2.28-.64 4.69-.7 7-.18 2.88.85 5.55 2.3 7.83 4.26 1.8 1.45 4 3.26 4.39 5.73.36 2.18-.92 4.77-2.17 6.5l-15.64 10.25-5.92.75z" fill="#3d2c56"/><path d="m1167.01 1524.3-.94 9.59s-4.33 3.86-5.64 2.73-7.62-5-7.71-5.27-3.1-6.3-3.1-7.05.56-5.06.56-5.06z" fill="#c66f7e"/><path d="m1170.77 1499.66s.38 19.75 0 21.72-4.23 8.37-8.46 8.37-9.31-3.67-10.72-5.36l-1.41-1.69c1.07 2.67 2.94 4.94 5.36 6.49 4.14 2.73 5.08 3.2 7.8 3.95l2.73.75v1.41l1.6 1s-5.17 5.08-10.53 4.8-10-4.61-10-4.61l1.88-1.88-.09-17.49c-.99.02-1.97-.27-2.79-.85-.81-.58-1.41-1.4-1.72-2.35-1.13-3.39.85-5.64 2.35-5.45s2.07.85 2.16 1.6.56.94 1.13 0 2-3.95 2-5.55-1-5-.09-5.83c.54-.49 1.17-.86 1.86-1.09.69-.22 1.42-.3 2.14-.23 2.72.56 5.49.87 8.27.94 1.73-.12 3.44-.46 5.08-1z" fill="#fb919f"/><path d="m1165.88 1521.97-7.57-.57s.48 3.41 3.35 3.74c.98.13 1.97-.12 2.76-.72.79-.59 1.32-1.47 1.46-2.45z" fill="#fff"/><path d="m1172.84 1567.85h-10.57c-.1 0-.18.08-.18.18v23.8c0 .1.08.18.18.18h10.57c.1 0 .18-.08.18-.18v-23.8c0-.1-.08-.18-.18-.18z" fill="#e6f0fc"/><path d="m1166.42 1567.85h-2.64c-.1 0-.18.08-.18.18v23.8c0 .1.08.18.18.18h2.64c.1 0 .18-.08.18-.18v-23.8c0-.1-.08-.18-.18-.18z" fill="#fff"/><path d="m1171.36 1573.29h-4.76v16.52h3.93c.46 0 .9-.18 1.22-.51.33-.32.51-.76.51-1.22v-13.89c0-.24-.09-.47-.26-.64s-.4-.26-.64-.26z" fill="#f28c8c"/><path d="m1163.43 1573.29c-.12 0-.23.02-.34.07-.11.04-.21.11-.29.19-.09.09-.15.19-.2.3-.05.1-.07.22-.07.34v13.89c0 .34.1.68.29.96.19.29.46.51.77.64v-16.39z" fill="#f28c8c"/><path d="m1163.6 1573.29v16.39c.21.09.44.14.67.14h2.33v-16.53z" fill="#ffb8b8"/><path d="m1139.38 1584.79c1.49-.64 3.01-1.21 4.56-1.68l-10.12 1.81.05-2.18-12.06-2.34s-3.27 17.3 0 20.94c.6.64 1.41 1.18 2.21 1.51.5-2.46 1.37-4.86 2.53-7.09 2.8-5.05 7.56-8.68 12.83-10.97z" fill="#c66f7e"/><path d="m1175.06 1574.29c-1.15-.89-13.26 1.82-13.26 1.82s.18-1.69.18-2.75-.53-1.69-1.16-1.69-1.6 3.38-2.13 5.06c-.53 1.43-1.2 2.8-2 4.09l-12.72 2.28c-1.55.47-3.08 1.03-4.57 1.67-5.27 2.29-10.15 5.92-12.89 11-1.16 2.23-2 4.61-2.49 7.08 10.05 4.45 34.8-13.73 34.8-13.73s13.77-.36 14.83-2.84.82-8.93.82-8.93 1.76-2.17.59-3.06z" fill="#fb919f"/><path d="m1279.99 1672.29-5.26-.36 10.14.36c2.83.2 5.48 1.47 7.39 3.56 1.92 2.09 2.97 4.83 2.92 7.67l-.48 30.65h-4.86v-.08l.48-30.57c.05-2.84-1-5.59-2.92-7.68s-4.58-3.36-7.41-3.55z" fill="#9cc8e8"/><path d="m1239.41 1658.59c8.35 7.63 19.04 12.21 30.32 13l5 .35 5.26.36c2.83.2 5.48 1.47 7.39 3.56 1.92 2.09 2.97 4.83 2.92 7.67l-.48 30.57v.08l-4 .47-.1-12.13-.15-17.68c-.02-1.94-.79-3.81-2.15-5.19-1.36-1.39-3.21-2.2-5.15-2.25h-1.56l-10.3-.28c-9.84-.27-20.85-3.35-29.65-11.18l-6.69-16.44z" fill="#9cc8e8"/><path d="m1215.53 1623.77c15.2 7.72 19.2 30.55 19.2 30.55s8.1 29.45 7.19 45.88v.21c-.09 1.77.17 3.54.78 5.2.61 1.67 1.55 3.19 2.77 4.48 1.21 1.28 2.68 2.31 4.3 3.01 1.63.71 3.38 1.07 5.15 1.08h9.5l-24.16 6.51-3.3-4.85.51-.27c-1.93-2.06-3.46-4.45-4.52-7.07-2.82-7.05-2.66-14.88-2.92-22.46-.32-9.42-1.37-18.89-4.29-27.85s-7.81-17.43-14.94-23.59c-7.91-6.84-18.19-10.52-28.55-11.95-4.83-.63-9.7-.9-14.57-.8 4.44-1.78 32.74-5.74 47.85 1.92z" fill="#e6f0fc"/><path d="m1167.61 1621.89h.09c4.87-.1 9.74.17 14.57.8 10.36 1.43 20.64 5.1 28.55 11.95 7.13 6.16 12 14.63 14.94 23.59s4 18.43 4.29 27.85c.26 7.59.1 15.41 2.92 22.46 1.6 4.04 4.36 7.52 7.93 10v.23l-3.91-2.88-.16 1.15-47.23-.92 1.73-29.42s-2-18.73-3.66-23.61c-1.44-3.55-3.09-7-4.95-10.35l-15.11-18.25s-5.23-4.55-5.23-6.58 1.09-4.26 5.23-6.02z" fill="#9cc8e8"/><path d="m1295.39 1768.7h-2.71s-1.09-47.87-20-49.77l13.44-1.29 7.6 7.53z" fill="#fff"/><path d="m1182.71 1766.09 1.52 1.3h2.14s4.44-46.65 27.45-48.28l-5-1.43-15.88 4.28z" fill="#9cc8e8"/><path d="m1240.16 1714.18h54.69l4.48 54.52h-3.94s-1.36-50-22.66-49.77c-27.2.35-26.6 49.77-26.6 49.77h-6z" fill="#9cc8e8"/><path d="m1230.32 1672.29-5.26-.36 10.14.36c2.83.2 5.48 1.47 7.39 3.56 1.92 2.09 2.97 4.83 2.92 7.67l-.48 30.65h-4.8v-.08l.48-30.57c.05-2.85-1.01-5.6-2.94-7.7-1.94-2.09-4.61-3.35-7.45-3.53z" fill="#9cc8e8"/><path d="m1189.73 1658.59c8.35 7.63 19.04 12.21 30.32 13l5 .35 5.26.36c2.83.2 5.48 1.47 7.39 3.56 1.92 2.09 2.97 4.83 2.92 7.67l-.48 30.57v.08l-4 .47-.1-12.13-.15-17.68c-.02-1.94-.79-3.81-2.15-5.19-1.36-1.39-3.21-2.2-5.15-2.25h-1.56l-10.3-.28c-9.84-.27-19.38-3.45-27.41-9.15l-5.5-14.76z" fill="#fff"/><path d="m1185.87 1664.98c-3.6-13.23-18.26-30.54-18.26-30.54s9.77 9 16.18 18.73 10.28 28.5 9.26 47l-.15 2.75c-.08 1.44.14 2.89.64 4.25s1.27 2.6 2.26 3.65c1 1.05 2.19 1.89 3.52 2.46s2.76.87 4.21.87h36.62v54.52h-4.07c1.63-16-4.74-47.48-22.26-49.64-24.23-3-29.59 48.28-29.59 48.28l-5.7-.27 7.33-52.89s6.85-24.03.01-49.17z" fill="#fff"/><path d="m1359.3 1669.95 5.26-.36-10.14.36c-2.83.2-5.47 1.47-7.39 3.56s-2.96 4.83-2.92 7.67l.48 30.65h4.86v-.08l-.48-30.57c-.04-2.84 1-5.59 2.93-7.68 1.92-2.09 4.57-3.36 7.4-3.55z" fill="#fff"/><path d="m1399.89 1656.25c-8.35 7.63-19.03 12.21-30.32 13l-5 .35-5.26.36c-2.83.2-5.47 1.47-7.39 3.56s-2.96 4.83-2.92 7.67l.48 30.57v.08l4 .47.1-12.13.15-17.68c.02-1.94.79-3.81 2.15-5.19 1.36-1.39 3.21-2.2 5.15-2.25h1.56l10.3-.28c9.84-.27 20.85-3.35 29.65-11.18l6.69-16.44z" fill="#9cc8e8"/><path d="m1423.77 1621.39c-15.2 7.72-19.2 30.55-19.2 30.55s-8.1 29.45-7.19 45.88v.21c.1 1.77-.17 3.54-.78 5.2-.61 1.67-1.55 3.19-2.76 4.48-1.22 1.28-2.68 2.31-4.31 3.01-1.63.71-3.38 1.07-5.15 1.08h-9.5l24.16 6.51 3.3-4.85-.51-.27c1.93-2.06 3.47-4.45 4.52-7.07 2.82-7.05 2.66-14.88 2.92-22.46.32-9.42 1.37-18.89 4.29-27.85s7.81-17.43 14.94-23.59c7.91-6.84 18.19-10.52 28.55-11.95 4.83-.63 9.7-.9 14.57-.8-4.45-1.74-32.75-5.71-47.85 1.92z" fill="#fff"/><path d="m1471.68 1619.55h-.09c-4.87-.1-9.74.17-14.57.8-10.36 1.43-20.64 5.1-28.55 11.95-7.13 6.16-12 14.63-14.94 23.59s-4 18.43-4.29 27.85c-.26 7.59-.1 15.41-2.92 22.46-1.6 4.04-4.36 7.52-7.93 10v.23l3.91-2.88.16 1.15 47.23-.92-1.73-29.42s2-18.73 3.66-23.61c1.44-3.55 3.09-7 4.95-10.35l15.11-18.25s5.23-4.55 5.23-6.58-1.09-4.26-5.23-6.02z" fill="#e6f0fc"/><path d="m1343.9 1766.39h2.71s1.09-47.87 20-49.77l-13.44-1.29-7.6 7.53z" fill="#9cc8e8"/><path d="m1456.58 1763.74-1.53 1.26h-2.14s-4.44-46.65-27.45-48.28l5-1.43 15.88 4.28z" fill="#fff"/><path d="m1399.14 1711.83h-54.69l-4.48 54.52h3.94s1.36-50 22.66-49.77c27.2.35 26.6 49.77 26.6 49.77h6z" fill="#fff"/><path d="m1391.9 1628.01-2.69 13.2s13.43-2.72 13.35-3-6.67-11.46-6.67-11.46z" fill="#c66f7e"/><path d="m1368.94 1764.75s-6.89 1.58-7.67 2.62c-.49.9-.7 1.93-.59 2.95h26.23c.21 0 .42-.05.6-.14.19-.09.36-.22.49-.38.12-.16.22-.35.26-.55.05-.21.05-.42 0-.62v-6.62z" fill="#3d2c56"/><path d="m1375.34 1745.5 4.24 9.06c.17.69.17 1.41 0 2.1-.32.62-10.64 8.08-10.64 8.08l19.35-2.75-4.56-19.35z" fill="#c66f7e"/><path d="m1347.32 1748.95h-2.5s-5.12 5.08-7.26 6.64-5.49 5-4.22 7.74 6.3 2.6 9 1.79 8.49-7.92 10.75-9 3.52-2.48 3.52-2.95.06-2.83.06-2.83z" fill="#3d2c56"/><path d="m1353.38 1728.84s-2.89 12-3.35 13.92-9.36 10-9.88 11.27 1.21 3.35 4.62 3.64 4.91-1.16 7.34-3.35 4.56-3.93 4.56-3.93-.12-4.1 0-5.2 5.14-11.9 5.14-11.9z" fill="#fb919f"/><path d="m1389.87 1671.28s.62 2-4.94 3.47c-4.01 1.14-7.95 2.53-11.79 4.16v10.81l-21.49 37.18-2.6 7.65 12.06 4.42 6.26-11.84 7.47 20.92 12.46-2.17c-1.32-12.25-2.25-32.83-7.7-44.09l15.81 2.08 10.65-31.37-8-2z" fill="#3d2c56"/><path d="m1435.02 1684.11-13-11.09-19.24-2.48s-1.21 5.26-3.81 5.84-30.46-.44-35.24 3.52-12.08 47-12.08 47c2.86.87 6-.84 7.76-3.23s2.59-5.35 3.56-8.18 2.23-5.72 4.62-7.52c1.95-1.47 4.43-2 6.55-3.25s5-3.7 4.38-6.05c0 0 28.08 10.05 42.64 9.2s13.86-23.76 13.86-23.76z" fill="#533a71"/><path d="m1399.66 1584.73c.46 1.19.64 2.47.53 3.73-.11 1.27-.49 2.5-1.14 3.6-2.17 4.15-5 7-2.17 11.73s10.83 5.13 10.83 5.13l6.76-4.32 1-10.59s-1.85-6.27-2.28-6.35-13.53-2.93-13.53-2.93z" fill="#533a71"/><path d="m1410.59 1649.32c2.85.82 5.8 1.25 8.76 1.3 3-.12 6.07-1.32 7.54-3.74 1.9-3.11.78-7.52 3.4-10.13 1.25-1.24 3.1-1.77 4.61-2.73 1.23-.78 2.23-1.88 2.89-3.18.65-1.31.94-2.77.83-4.22l-1 11.28 14.4 1.12s1.59-23.34-6.22-30.89c-2.18-2.1-4.39-7.44-4.39-7.44l-21.78-1.63-13.87 4.4s-7.94 3.42-10.37 7.33-5.11 18.41-5.11 18.41l4.77 1.55c-.15 2.85.39 5.7 1.56 8.31 1.55 3.73 1.06 7.91.48 11.88 1.37-1.1 2.98-1.86 4.69-2.22 2.95-.42 5.95-.21 8.81.6z" fill="#ff6b6b"/><path d="m1389.87 1672.05s16.38 1.55 26.69 4.07c6.53 1.69 12.76 4.39 18.46 8 0 0 .87-27 2.95-35.52 1.16-4.73 2.74-10.64 2.74-10.64h-3.07l1-11.28c.11 1.45-.18 2.91-.83 4.22-.66 1.3-1.66 2.4-2.89 3.18-1.51 1-3.36 1.49-4.61 2.73-2.63 2.6-1.5 7-3.4 10.13-1.48 2.42-4.58 3.62-7.54 3.74-2.96-.05-5.91-.48-8.76-1.3-2.86-.81-5.86-1.02-8.8-.6-1.71.36-3.32 1.12-4.69 2.22-.17 1.14-.34 2.26-.48 3.35-.62 4.83-6.77 17.7-6.77 17.7z" fill="#d65050"/><path d="m1422.39 1592.08c.1-2.8-.26-6-2.69-7.65-1.84-1.23-4.54-1.24-6-2.89s-.72-4.38-.6-6.67c.06-1.78-.33-3.54-1.13-5.13-.81-1.59-1.99-2.95-3.46-3.96-2.11-1.4-4.62-2.1-7.16-2-5 10.42-3.28 20.24-.69 25.72s10.57 2.23 10.57 2.23v9.45l-5.49 2.34c-1.16 8.36 5.2 13.63 5.2 13.63 9.53-1.68 21.84-13.69 21.84-13.69-2.48-.05-7.57-1.54-8.94-3.21-1.78-2.28-1.55-5.37-1.45-8.17z" fill="#fb919f"/><path d="m1446.17 1589.5c-5-5.43-8.26-1.85-11.61-6.46s-1.16-5.87-1.33-12.65-6-11.62-9.76-13-17.1-4.13-22.07 6.3c2.54-.1 5.05.6 7.16 2 1.47 1.01 2.65 2.37 3.46 3.96.8 1.59 1.19 3.35 1.13 5.13-.12 2.29-.93 4.88.6 6.67s4.11 1.67 6 2.89c2.44 1.62 2.79 4.85 2.69 7.65s-.33 5.89 1.49 8.11c1.37 1.67 6.46 3.16 8.94 3.21l5.66.87c5.66.87 7.34 3.86 7.34 3.86 1.3-1.53 2.4-3.21 3.29-5 .74-2.32.84-4.79.32-7.17s-1.67-4.57-3.31-6.37z" fill="#533a71"/><path d="m1411.23 1591.68c1.91-.6 3.68-1.58 5.2-2.88l3.18-2.44c-.29 2.08-1.34 3.98-2.95 5.32-1.51 1.47-3.38 2.5-5.43 3z" fill="#c66f7e"/><path d="m1408.97 1669.95 5.26-.36-10.14.36c-2.83.2-5.47 1.47-7.39 3.56s-2.96 4.83-2.92 7.67l.48 30.65h4.86v-.08l-.48-30.57c-.04-2.84 1-5.59 2.93-7.68 1.92-2.09 4.57-3.36 7.4-3.55z" fill="#fff"/><path d="m1449.56 1656.25c-8.35 7.63-19.03 12.21-30.32 13l-5 .35-5.26.36c-2.83.2-5.47 1.47-7.39 3.56s-2.96 4.83-2.92 7.67l.48 30.57v.08l4 .47.1-12.13.15-17.68c.02-1.94.79-3.81 2.15-5.19 1.36-1.39 3.21-2.2 5.15-2.25h1.56l10.3-.28c9.84-.27 19.38-3.45 27.41-9.15l5.5-14.76z" fill="#9cc8e8"/><path d="m1453.42 1662.64c3.6-13.23 18.26-30.54 18.26-30.54s-9.77 9-16.18 18.73-10.28 28.5-9.26 47l.15 2.75c.08 1.44-.14 2.89-.63 4.25-.5 1.36-1.27 2.6-2.27 3.65-.99 1.05-2.19 1.89-3.52 2.46s-2.76.87-4.21.87h-36.62v54.58h4.09c-1.63-16 4.74-47.48 22.26-49.64 24.23-3 29.59 48.28 29.59 48.28l5.7-.27-7.33-52.89s-6.86-24.09-.03-49.23z" fill="#9cc8e8"/><path d="m1400.5 1646.19-1.37-4.8s-3.1-1.3-3.27-1.46-6.64 1.29-6.64 1.29l-8.13 4.77-2.56 4.13 2.95 4.68z" fill="#9cc8e8"/><path d="m1376.85 1646.76c-1.24-2.74-3.5-4.89-6.3-6-4.51-1.62-7.51-.23-7.51-.23l-.64 2.89 12.83 9.82h6.64l-1.85-3.62c1.91-2.47 4.25-4.57 6.91-6.21 4.52-2.83 12.19-2 12.19-2l-1-3.7s-12.66-.65-21.27 9.05z" fill="#e6f0fc"/><path d="m1373.64 1647.91s-1.53-5.08-5.05-5.37c-2.1-.18-4.21.12-6.18.87l2.95 6.07z" fill="#9cc8e8"/><path d="m1404 1652.24-.94-3-.22-.69-1.46-4.8s-9.57-1.5-15.58 1.73-6.69 5.45-6.69 5.45l7.83 21.44c2.03-1.82 4.33-3.31 6.82-4.43 4.17-1.89 14.22-1.77 14.22-1.77z" fill="#ffb942"/><path d="m1400.5 1650.51-1.24-4.2c-3.17-.25-8.66-.25-12.14 1.63-1.79.89-3.45 2.03-4.9 3.41l1.43 3.9c1.4-1.17 2.92-2.18 4.55-3 3.5-1.92 8.97-1.98 12.3-1.74z" fill="#ffce88"/><path d="m1379.12 1650.94-3.88.39 8.08 21.49 3.63-.44z" fill="#e08605"/><path d="m1368.07 1643.39c-4.8-.58-7 1.62-7 1.62l10.69 22.07c1.73-.76 3.66-.92 5.48-.44l-8-22.93c-.37-.15-.77-.26-1.17-.32z" fill="#ffb942"/><path d="m1383.32 1672.82-6.76-20.34c-.23-.23-1.33-1.16-1.33-1.16s-2-6.09-6-7.6l8 22.93c2.11.6 4.39 2.23 6.09 6.17z" fill="#e08605"/><path d="m1404 1652.24s-7 .94-8 1.28-3.18 1.73-3.35 2.37 4.51 8 5 8.55 9.94.32 9.94.32z" fill="#e08605"/><path d="m1449.09 1638.46-11.45-.56-.25 2c3.71.82 7.45 1.5 11.22 2 .23-1.14.39-2.28.48-3.44z" fill="#c66f7e"/><path d="m1437.39 1639.93-2 16.08-26.16-2.62-6.41-4.79 1.16 3.68s-7.32 1.61-7.32 1.63-3.21 1.4-3.35 1.8.22.82.61 1c1.5-.18 2.98-.47 4.43-.88 0 0-3.45 1.24-3.58 1.57s.55 1.17 1 1.7 1.83 3.13 3 3.49 11-2.43 11-2.43 17.33 7.66 24.09 7.86 9.88-3.7 10.57-5.09c.52-1 3-14.44 4.1-20.92-3.69-.62-7.43-1.26-11.14-2.08z" fill="#fb919f"/><path d="m1363.23 1651.93s5.65-.6 6.12.09c.1.15.18.31.21.49.03.17.02.35-.02.52-.05.18-.13.34-.24.48-.12.13-.26.24-.42.32-.92.31-1.88.48-2.85.51 0 0 2.75.24 2.95.56s1.76 4.62 1.39 5.42c-.36.46-.84.81-1.39 1.03-.54.22-1.14.29-1.72.21-1-.24-3.75-6.82-3.75-6.82s-2.28-1.64-.28-2.81z" fill="#fb919f"/><path d="m1403.31 1586.98 5.54-.65s-1.27 3.36-3.18 3.13-2.36-2.48-2.36-2.48z" fill="#fff"/><path d="m1342.56 1682.6h-71.47v8.23h71.47z" fill="#9cc8e8"/><path d="m1276.98 1681.93c5.45 12.64 11.71 25 11.67 39.12 0 15.7-7.53 28.64-15 41.83-2 3.62 3.53 6.88 5.57 3.26 8-14.26 15.77-28.18 15.85-45.09.07-15.27-6.66-28.71-12.55-42.38-1.64-3.8-7.2-.52-5.57 3.26z" fill="#fff"/><path d="m1328.83 1678.67c-5.91 13.7-12.55 27.08-12.55 42.38 0 16.88 7.83 30.88 15.85 45.09 2 3.62 7.62.37 5.57-3.26-7.44-13.2-14.93-26.12-15-41.83 0-14.13 6.23-26.49 11.67-39.12 1.63-3.77-3.93-7.07-5.57-3.26z" fill="#fff"/><path d="m1308.48 1765.49-.27-85c0-4.15-6.47-4.16-6.45 0l.27 85c0 4.15 6.47 4.16 6.45 0z" fill="#fff"/><path d="m1347.64 1675.22h-84.76c-3.21 0-5.81 2.6-5.81 5.81 0 3.2 2.6 5.8 5.81 5.8h84.76c3.21 0 5.81-2.6 5.81-5.8 0-3.21-2.6-5.81-5.81-5.81z" fill="#2f3236"/><path d="m1318.97 1719.56h-30.35v7.27h30.35z" fill="#fff"/><path d="m1310.44 1651.5s-4.16-6.78-2.26-11.35 5.62-4 5.25-2-.67 3.12 1.93.07 7.36-4.61 7-2.75-4 2.9-.3 2.68 8.4.37 5.87 3.72-6.32 4.24-4.39 4.91 1.12 2-1 2.83-8.92-.89-7 .37-1.78 3.31-5.1 1.52z" fill="#5fcca2"/><path d="m1307.47 1648.91s-12.18 1.25-13.37-2.91 6.62-1.71 4.61-3.2-7.51-2.31-8.25-4.24 1.49-2.75 2.68-2.23-.82-2.45-1.49-4.54.67-4.76 2.75-3.64 4.76 6.47 5.21 5.28 1.56-4.24 2.83-4.31 2.75 2.16 3 4.54.94 8.33 2 7.36 1.95-3.57 2.77-1.34-.98 8.43-2.74 9.23z" fill="#028a85"/><path d="m1310.46 1653.7h-1.23v-.17c-.71-2.51-1.72-4.92-3-7.19-2.32-4.27-7.84-6.91-7.89-6.93-.02-.01-.05-.03-.07-.05s-.03-.05-.04-.08c-.01-.02-.02-.05-.01-.08 0-.03 0-.06.02-.08.01-.03.03-.05.05-.07s.04-.04.07-.05.06-.01.09-.01.06.01.08.02c.23.11 5.71 2.72 8.09 7.12 1.26 2.26 2.27 4.65 3 7.13h.63c-.07-1.86.38-3.7 1.31-5.3.94-1.61 2.3-2.92 3.95-3.78 5.82-3.06 7.83-2.42 7.91-2.39.03.01.05.03.08.04.02.02.04.05.05.07.01.03.02.06.02.09s0 .06-.01.09c-.01.02-.03.05-.05.07s-.04.04-.07.05c-.02.01-.05.02-.08.02s-.06 0-.09-.01c0 0-2-.57-7.56 2.37-1.6.84-2.92 2.13-3.81 3.71-.89 1.57-1.3 3.37-1.19 5.18v.25z" fill="#2f3236"/><path d="m1317.97 1652.24h-5.63c.71 0 1.39.28 1.89.78s.78 1.18.78 1.89v12.41c0 2.1-.83 4.1-2.31 5.59-1.48 1.48-3.49 2.31-5.59 2.31h5.63c1.04 0 2.07-.2 3.02-.6.96-.4 1.83-.98 2.57-1.71.73-.74 1.31-1.61 1.71-2.57s.6-1.98.6-3.02v-12.41c0-.71-.28-1.39-.78-1.89s-1.18-.78-1.89-.78z" fill="#9cc8e8"/><path d="m1315 1667.31v-12.41c0-.71-.28-1.39-.78-1.89s-1.18-.78-1.89-.78h-12c-.71 0-1.39.28-1.89.78s-.78 1.18-.78 1.89v12.41c0 1.04.21 2.06.6 3.02.4.96.98 1.83 1.72 2.57.73.73 1.6 1.31 2.56 1.71s1.98.6 3.02.6h1.54c1.04 0 2.07-.2 3.02-.6.96-.4 1.83-.98 2.57-1.71.73-.74 1.31-1.61 1.71-2.57s.6-1.98.6-3.02z" fill="#fff"/><path d="m1193.79 1620.39s-1.51-5.52.24-5.52 2.45 2.54 2.45 2.54-.55-2.42 2-1.64 6.61 1.72 7.08 3 .47 4.77-1.29 5-6.22-.2-6.8-1-.76-3.42-.76-3.42.41 3.11-.69 3.5-1.96-1.27-2.23-2.46z" fill="#fb919f"/><path d="m1192.51 1618.9c-.1 0-2.72-1.21-3.93-1s-1.21 1-1.21 1l.2.37h5.53z" fill="#fb919f"/><path d="m965.021 1856.19c41.639 0 75.399-3.65 75.399-8.15s-33.76-8.15-75.399-8.15c-41.642 0-75.4 3.65-75.4 8.15s33.758 8.15 75.4 8.15z" fill="#3856a5" fill-opacity=".07"/><path d="m1023.44 1698.99c-.35-.81-4.45 1-5.55.87-1.46-.3-2.9-.68-4.31-1.15.83-.26 1.69-.46 2.55-.59.81-.05 1.58-.32 2.24-.78.54-.37.59-.87.44-1.09s-.5-.11-1.46.15-4.34-.07-5.82.11-4.08 2.69-4.08 2.69-7.809 2.43-12.999 3.56-10.06 1.82-15.09 0-13.27-12.15-14.57-14.74c-.368-.74-.893-1.39-1.536-1.91-.644-.52-1.392-.89-2.194-1.09l-1.91.61 6.82 22.9s8 5 15.79 5.26 25.219-6.88 25.219-6.88 9.08 3.12 11.39 1.74 4.22-6.88 3.7-7.11c-.48-.05-.97-.01-1.44.11.51-.12.99-.32 1.44-.57.73-.59 1.72-1.28 1.37-2.09z" fill="#c66f7e"/><path d="m922.082 1827.74s-2.05 2-2.71 2.86c-.784 1.4-1.287 2.93-1.481 4.52-.069 1.46.278 2.92 1 4.19 1 1.56 13.3 10.1 16.25 11.33s6.651 1.64 8.131 0-6.12-10.59-6.12-10.59l-7.1-8.54z" fill="#3d2c56"/><path d="m952.791 1842.84s-2.07 4.68-1.76 5.66c.511 1.39 1.098 2.74 1.76 4.06.27.49 23.92 1.48 25.76 0s2.22-2.91.74-4.47-7.15-3.54-7.8-3.94-18.7-1.31-18.7-1.31z" fill="#3d2c56"/><path d="m939.811 1788.17s-7.38 7.55-8.54 11.33-4.27 18.89-6.04 22.49-3.12 5.75-3.12 5.75l15.06 12.31s-2.26-11-2.09-13.13 19-29 19.18-31.33-14.45-7.42-14.45-7.42z" fill="#c66f7e"/><path d="m970.021 1784.39s-5.279 36.33-5.919 43.29-.48 10.07 1.65 12.21c1.766 1.62 3.692 3.05 5.75 4.27 0 0-4.1.81-6.07 1s-12.63-2.29-12.63-2.29 1.56-5.42 1.43-8.87-2.47-20.69-3.19-27.75 1.76-17.4 1.76-17.4z" fill="#fb919f"/><path d="m948.171 1778.39c2.29-5.35 3.83-11.39 2.17-17-2.13-7.16-9.25-12.77-8.93-20.24s8.45-13.62 7.47-21.15c-.68-5.2-5.43-8.73-8.29-13.12-1.745-2.8-2.777-5.99-3.008-9.29-.23-3.29.35-6.59 1.688-9.61-1.529 1.23-2.849 2.7-3.91 4.35-4.27 6.82-4.43 18.22-3.94 21.71s6.51 23.6 6.51 24.3-12.74 32.22-16 38l-4.6 7.06.82 1.71 11.18-14.19-8.68 19.37v4.6c.955 1.36 2.229 2.45 3.71 3.2 1.481.74 3.123 1.11 4.78 1.07 4.59 0 7.62-1.36 11.35-.9.149-1.31.396-2.6.74-3.87 1.59-5.6 4.65-10.66 6.94-16z" fill="#d65050"/><path d="m982.971 1790.63s-10.26-55.24-10.74-63.17-6.28-35.48-8.74-38.73c-1.53-1.99-3.457-3.65-5.66-4.86l-8.94-1c-3.487 1.1-6.744 2.84-9.61 5.11-1.338 3.02-1.918 6.32-1.688 9.61.23 3.3 1.263 6.49 3.008 9.29 2.87 4.39 7.61 7.92 8.29 13.12 1 7.53-7.14 13.56-7.47 21.15s6.8 13.08 8.93 20.24c1.66 5.58.13 11.62-2.17 17s-5.35 10.4-6.93 16c-.355 1.27-.612 2.57-.77 3.88 1.179.14 2.334.44 3.43.9 5.58 2.3 14.44 3 18.05 3 2.48.07 4.959-.14 7.39-.63-.25-5-1.92-37.86-2.1-39.94-.001-.03-.001-.06 0-.09 0-.08 0 0 0 .09.34 2.13 13.27 25.4 15.72 32.36.378-.47.583-1.06.583-1.66 0-.61-.205-1.2-.583-1.67z" fill="#ff6b6b"/><path d="m918.121 1785.12 2.5 5.18 8.68-19.37z" fill="#ff6b6b"/><path d="m982.971 1793.92c-2.45-7-15.39-30.23-15.72-32.36.17 2.09 1.85 35 2.1 39.94 1.333-.27 2.622-.72 3.83-1.34 4.21-2.3 8.48-4.6 9.79-6.24z" fill="#d65050"/><path d="m967.231 1761.46c-.001.03-.001.06 0 .09 0-.16 0-.16 0-.09z" fill="#ff6b6b"/><path d="m970.931 1660.82s-.74 11.2.57 14.1c1.026 1.98 1.798 4.09 2.3 6.26-.032.96-.225 1.9-.57 2.79l-4.84 1s.57-4-1.48-6.07l-2.05-2.05s2 2.22 2.22 3.94c.164 1.39.247 2.79.25 4.19l-5.66.62c-1.075.12-2.154-.19-3-.87-.25-.08-2.12-.16-2.12-.16l-.35-10.92z" fill="#3d2c56"/><path d="m959.931 1677.32-2.46 6.65c-1.391-.29-2.761-.67-4.1-1.15-.16-.25-4.43-9.6-4.43-9.6l1.29-3.83z" fill="#c66f7e"/><path d="m973.151 1655.57s.57 5.42 1 7.06 1.56 3.78 1.31 6.73-4.68 9.93-8.37 11.41-8.24-.15-9.83-1.1-7.06-6.21-7.06-6.21 3.36 7.06 5.32 8.78l2 1.72-.41 5.17s2.71 4.93 1.15 4.19-12.81-9.44-12.81-9.44-7.72-19.21-7.72-19.62 3-10 3.2-10.26 14.91-9.11 14.91-9.11l13.35-3.86 4.91 4.93z" fill="#fb919f"/><path d="m954.491 1632.82c-1.391-.01-2.776.19-4.11.59-4.2 1.24-13.17 4.54-15.83 10.75-3.52 8.2-.31 13.17-1.55 15.94s-4.43 4.25-4.43 7.21.74 4.92 0 7.88c-.597 1.97-1.7 3.76-3.2 5.17l4.43 2.75c1.097-1.51 2.099-3.09 3-4.72l1-2-1.23 6.69c2.501 1.07 5.119 1.84 7.8 2.3 2.175.21 4.365.21 6.54 0l1-10.5-.46-4.66s-5-1.62-5.22-5 1.26-4.95 2.66-5.16 2.25 1.54 5.94 2.28 5.66-1.8 7.88-2.87 4 .15 6.12-1.94 1.27-5.78 2.75-7 3.69-3.15 3.69-3.15l2 8.15c-.18-.76 1.34-3.52 1.54-4.53.346-1.71.41-3.47.19-5.2-.24-2.05-.912-4.02-1.97-5.79-1.059-1.77-2.48-3.29-4.17-4.47-4.2-2.66-9.63-2.69-14.37-2.72z" fill="#3d2c56"/><path d="m971.151 1673h-8.31c.235 1 .77 1.9 1.534 2.58.764.69 1.719 1.12 2.736 1.24 2.78.33 4.04-3.82 4.04-3.82z" fill="#fff"/><path d="m974.431 1739.49-38.45 4.05 1.94-5.85 35.93-3.78z" fill="#ffb942"/><path d="m1001.11 1704.25c-.29-.82-6.419.92-7.799.92-1.526-.15-3.035-.45-4.51-.87.752-.84 1.341-1.81 1.74-2.86.35-1.3 0-1.74-1.13-1.13s-1.74 1.21-2.95 1.91-2.17 3.64-2.17 3.64-18.51 11.22-20.18 10.87-13.19-13.34-14.35-15.34-6.2-14.76-12.22-9.37c-4.07 3.64 0 14.14 0 14.14s13.78 21.43 22.63 21.43 26.18-13.2 26.18-13.2 5.62.49 6.86.49 4.74-2.87 5.65-4.25c.77-1.15.93-3.72 1-4.53.909-.38 1.529-1.07 1.249-1.85zm-3.529 3.23c-.629.05-1.261.05-1.89 0l2.61-.86c-.2.36-.43.77-.72.87z" fill="#fb919f"/><path d="m1154.03 1850.78s1.6 5.17 1.6 8 0 3.2-2.34 3.57-13.79.74-15.51 0-1.6-5.54 0-7.14c1.85-2.22 3.55-4.56 5.1-7z" fill="#e6edff"/><path d="m1104.15 1835.01c-1.37 2.16-3.14 4.05-5.21 5.55-3 2-10.06 5.55-8.91 8.91s5.09 4 8.79 4.28 7.17-3.12 11-4.16 7.06-3.57 7.52-5.2-1.5-10.22-2.43-10.55-10.76 1.17-10.76 1.17z" fill="#e6edff"/><path d="m1109.82 1782.73-3-4.86-6.64-.52s-9.66 19-9.2 25.27 4.83 34.93 11.26 34.93 6.55.46 6.43 0 1.15-54.82 1.15-54.82z" fill="#533a71"/><path d="m1101.23 1773.48-1.1 3.87 6.64 2.08s-9.83 20.47-9.88 25.33 4 26.55 4.25 28.63c.18 1.43.54 2.82 1.06 4.16 0 0 9.38 2.26 11.47-1s2.7-9.37 1.78-11.62-2.13-21-2.13-21l9.37-9.89s9 22.21 10.58 26.72 4 20.55 5.21 24.42c.71 2.77 2.47 5.16 4.92 6.64 2 1.39 9 2.08 10.63 0s3.71-5.38 3.54-11.62-2.91-35.39-3.54-40.25-1.67-24.81-2.19-27.41-50.61.94-50.61.94z" fill="#3d2c56"/><path d="m1139.54 1705.39 2.69 1.31 4.34 23.27 3.27 6.63s-.8 8.18 0 12.11 6.35 19.56 4.73 22.91-2.17 4.74-4.63 5.89-19.8 3.82-28.47 2-19.3-4-20.23-6 5.42-35.63 5.54-36 14-17.27 14-17.27l4.86-8.16z" fill="#9cc8e8"/><path d="m1136.33 1702.39c.98.34 1.84.97 2.46 1.8l.75 1.21c-2.08 1.98-4.35 3.76-6.77 5.32-1.96 1.13-4.02 2.1-6.14 2.89 1.79-.08 3.55-.45 5.21-1.1 2.14-1 8.79-6.3 9.37-6.3s2.37.93 4.5 2.16 5.91 3.86 7.71 7.27 1 29-20 32.62-21.28-2.54-21.63-3.24.93-6.94 1.27-7.29 13-3.31 16-5.76 5-7.54 5-7.54c-1.57 2.82-4 5.06-6.93 6.4-3.11 1.33-6.76.47-10 1.41-3.13 1.07-5.71 3.34-7.19 6.3-1.44 2.94-2.49 6.06-3.12 9.28 0 0-1.8-16.1.06-20.73s11.23-16.77 11.23-16.77 4.71-3.31 5.44-3.29 12.78-4.64 12.78-4.64z" fill="#e6f0fc"/><path d="m1121.79 1707.39v-8.33l11-.4 2 2.78s-5.67 5.56-5.84 5.55-7.16.4-7.16.4z" fill="#c66f7e"/><path d="m1107.33 1684.64.4 2.2s.17 6.76 1.5 9.54c1.26 2.6 3.38 4.68 6 5.9 2.31 1.24 4.9 1.84 7.52 1.74 2.83.06 8.56-2.37 8.56-2.37s-1.79 3.59-3.07 4.34-6.42 1.45-6.42 1.45l.06 3.41c.41.53.95.94 1.56 1.21 1.1.52 13.13-8.21 13.07-8.39s-.75-7.06-.52-8.21 2.54-2.83 2.54-2.83l3-1 1.91-5.15s-.29-3.53-.64-3.87-11.1-9.66-11.1-9.66l-17.76-5-6.59 6-1.68 7.46z" fill="#fb919f"/><path d="m1127.28 1660.09s-8.68-2.16-14.69 2.23-6.94 9.25-8.33 11-2.31 3.12-2 4c.45.83 1.04 1.57 1.74 2.2 0 0-1 2.2-.23 3s3 .58 3 2c.02.86.35 1.68.93 2.32l.12-6.48s2.08-.12 2.66-1.74 3.12-6.33 3.12-6.33c.08 2.17.83 4.26 2.13 6 2.09 2.55 4.57 3.23 5.19 2.84s-1.4-.78-2.71-3c-.8-1.41-1.28-2.98-1.4-4.6 0 0 2.16 5.45 5 7.22s3.91 1.83 4.75 1.86 5-.2 6.16.42c.27.19.59.3.93.3.33 0 .65-.11.92-.3l1.14 1.71c.49.54 1.02 1.03 1.59 1.47 0 0 1.56-4.57 2.89-3.18s2.9 4 2.06 6.13-3.73 3.53-3.73 3.53-2.66 1.5-2.54 2.83v2.73s3-3 4.14-4c1.03-.96 1.89-2.11 2.52-3.37.32-.68.72-4.09 2.05-5.07.64-.43 1.15-1.04 1.45-1.75.31-.7.41-1.49.29-2.25-.39-1.6-.95-3.15-1.68-4.63 0 0 2.35-1 1.72-2.26-1.6-2.84-3.37-5.58-5.31-8.21-1.62-2.14-7.93-7.93-13.88-6.62z" fill="#3d2c56"/><path d="m1094.95 1763.99c15.81 0 28.63-12.82 28.63-28.63s-12.82-28.63-28.63-28.63-28.63 12.82-28.63 28.63 12.82 28.63 28.63 28.63z" fill="#d65050"/><path d="m1101.08 1746.62c11.7-6.75 16.66-20.07 11.07-29.75s-19.61-12.06-31.31-5.3c-11.69 6.75-16.65 20.08-11.06 29.76s19.61 12.05 31.3 5.29z" fill="#ff6b6b"/><path d="m1113 1739.7s-3.64-2.08-5.38-2.34-3.3.69-4.25.69-.87 1 0 1.65c.7.39 1.48.6 2.28.61 0 0 1.19-.07 1.53.61s-3 1-3 1-5.83.7-6.66 1.31c-.27.18-.47.46-.54.78s-.02.66.15.94c.17.35 1.33.74 1.33.74s1.94 3.42 4.29 4.25 3.9 1.07 4.86.81 7.9-2.46 7.9-2.46z" fill="#fb919f"/><path d="m1127.4 1734.84-3.41-.49s-11.51 2.11-12.67 5.24-1.2 9.41 8.6 9.79 11.76-5.05 11.76-5.05z" fill="#e6f0fc"/><path d="m1067.8 1729.1s-2.82.11-3.16 1.24c-.19.83-.19 1.69 0 2.52 0 0-.22 5.42.65 7.37s2 2.65 2.69 2-.65-8.72-.65-8.85 3.11-2.57.47-4.28z" fill="#fb919f"/><path d="m1114.14 1696.34 9.19.17s-.59 4.57-4.59 4.11c-1.12-.12-2.18-.61-3.01-1.38s-1.38-1.79-1.59-2.9z" fill="#e6f0fc"/></g></svg>