<svg fill="none" height="292" viewBox="0 0 499 292" width="499" xmlns="http://www.w3.org/2000/svg" xmlns:xlink="http://www.w3.org/1999/xlink"><clipPath id="a"><path d="m0 .5h499v291h-499z"/></clipPath><g clip-path="url(#a)"><path d="m0 0h499v291h-499z" transform="translate(0 .5)"/><g fill="#0078fa"><path d="m361.95 33.6717c8.8 0 15.933-7.1274 15.933-15.9195 0-8.79201-7.133-15.91938-15.933-15.91938s-15.934 7.12737-15.934 15.91938c0 8.7921 7.134 15.9195 15.934 15.9195z"/><path d="m321.539 210.178c4.116 1.371 9.694 2.039 16.696 2.039 12.009 0 21.147-3.492 27.265-10.597 6.098-7.083 9.08-17.626 9.08-31.489v-119.9312h-25.118v119.2652c0 6.894-1.254 11.794-3.617 14.849l-.005.007-.005.007c-2.327 3.145-6.128 4.793-11.601 4.793-4.226 0-8.301-.582-12.228-1.745l-.998-.295v22.92z"/><path clip-rule="evenodd" d="m161.451 162.788c31.766 0 57.517-25.728 57.517-57.465 0-31.7375-25.751-57.4655-57.517-57.4655s-57.517 25.728-57.517 57.4655c0 31.737 25.751 57.465 57.517 57.465zm0-25.098c17.892 0 32.396-14.492 32.396-32.367 0-17.8761-14.504-32.3672-32.396-32.3672s-32.396 14.4911-32.396 32.3672c0 17.875 14.504 32.367 32.396 32.367z" fill-rule="evenodd"/><path clip-rule="evenodd" d="m340.221 105.323c0 31.737-25.752 57.465-57.517 57.465-31.766 0-57.518-25.728-57.518-57.465 0-31.7375 25.752-57.4655 57.518-57.4655 31.765 0 57.517 25.728 57.517 57.4655zm-25.121 0c0 17.875-14.505 32.367-32.396 32.367-17.892 0-32.397-14.492-32.397-32.367 0-17.8761 14.505-32.3672 32.397-32.3672 17.891 0 32.396 14.4911 32.396 32.3672z" fill-rule="evenodd"/><path d="m83.3692 50.1997h27.0118l-60.1526 159.5743h-26.3261l18.2888-50.079-41.413817-109.4953h27.012817l27.6741 79.7933z"/><path clip-rule="evenodd" d="m499 105.335c0 15.443-6.097 29.463-16.017 39.788-.512.534-1.035 1.057-1.568 1.571-10.33 9.958-24.381 16.089-39.865 16.106h-.14c-31.733-.039-57.444-25.752-57.444-57.465 0-31.737 25.751-57.465 57.517-57.465s57.517 25.728 57.517 57.465zm-16.813 0c0 5.892-1.254 11.491-3.51 16.545l-14.978-6.663c1.385-3.018 2.157-6.368 2.157-9.894 0-13.2956-10.962-24.0735-24.484-24.0735s-24.484 10.7779-24.484 24.0735c0 7.745 3.721 14.636 9.5 19.04l-10.19 12.844c-9.394-7.449-15.42-18.957-15.42-31.872 0-22.4599 18.224-40.6675 40.705-40.6675 22.48 0 40.704 18.2076 40.704 40.6675zm-33.144-.012c0 3.766-3.18 7.275-7.671 7.275s-7.671-3.509-7.671-7.275 3.18-7.276 7.671-7.276 7.671 3.51 7.671 7.276z" fill-rule="evenodd"/><path clip-rule="evenodd" d="m343.188 222.339c-.028-.382-.348-.683-.739-.683h-7.094c-.41 0-.741.33-.741.738v51.677c0 .408.331.739.741.739h6.765c.398 0 .725-.315.74-.712l.032-.875.008-1.291c2.58 2.319 5.437 3.64 8.575 3.956.332.017.666.025 1.001.025 10.932 0 19.794-8.829 19.794-19.721 0-10.868-8.825-19.687-19.735-19.721-3.571.075-6.723 1.347-9.45 3.812l.105-17.885zm9.156 22.692c-6.187 0-11.202 4.997-11.202 11.161s5.015 11.161 11.202 11.161 11.203-4.997 11.203-11.161-5.016-11.161-11.203-11.161z" fill-rule="evenodd"/><path d="m116.555 222.293c-.143-.227-.393-.365-.662-.365h-8.277c-.146 0-.29.041-.414.118-.104.065-.188.15-.248.248l-.013.022-.014.024-.028.059c-.097.226-.085.494.055.718l16.685 26.602v24.586c0 .429.349.777.78.777h7.02c.431 0 .78-.348.78-.777v-24.627l16.658-26.561c.078-.124.119-.267.119-.412 0-.429-.349-.777-.78-.777h-8.278c-.269 0-.519.138-.661.365l-11.361 18.114z"/><path clip-rule="evenodd" d="m177.734 256.182c0-10.892-8.862-19.721-19.794-19.721s-19.795 8.829-19.795 19.721 8.863 19.721 19.795 19.721 19.794-8.829 19.794-19.721zm-19.794-11.173c-6.194 0-11.215 5.002-11.215 11.173s5.021 11.173 11.215 11.173c6.193 0 11.214-5.002 11.214-11.173s-5.021-11.173-11.214-11.173z" fill-rule="evenodd"/><path d="m189.472 237.549c.41 0 .741.33.741.738v24.129h-.004c.088 4.427 3.19 6.366 7.81 5.852 4.089-.456 8.096-2.809 8.483-4.985v-24.996c0-.408.332-.738.741-.738h7.098c.409 0 .741.33.741.738v35.902c0 .408-.332.739-.741.739h-7.098c-.409 0-.741-.331-.741-.739v-1.26c-1.726 1.45-7.321 2.974-11.25 2.974-4.032 0-6.776-.512-9.051-2.086-2.972-2.056-4.567-5.774-4.567-11.595v-23.935c0-.408.331-.738.741-.738z"/><path clip-rule="evenodd" d="m258.562 256.182c0-10.892-8.862-19.721-19.794-19.721-.335 0-.668.008-1.001.025-3.137.316-5.994 1.636-8.575 3.956l-.008-1.291-.032-.875c-.014-.397-.342-.712-.74-.712h-6.765c-.409 0-.741.331-.741.739v51.677c0 .408.332.738.741.738h7.095c.409 0 .741-.33.741-.738l-.105-17.889c2.726 2.465 5.879 3.737 9.449 3.812 10.91-.034 19.735-8.853 19.735-19.721zm-19.794-11.161c-6.187 0-11.202 4.997-11.202 11.161s5.015 11.161 11.202 11.161 11.202-4.997 11.202-11.161-5.015-11.161-11.202-11.161z" fill-rule="evenodd"/><path d="m270.302 237.557c.409 0 .741.331.741.738v35.894c0 .408-.332.739-.741.739h-7.098c-.409 0-.741-.331-.741-.739v-35.894c0-.407.332-.738.741-.738z"/><path d="m270.071 223.865c-.931-.92-2.035-1.383-3.302-1.383-1.31 0-2.43.463-3.351 1.384s-1.384 2.03-1.384 3.318.468 2.397 1.4 3.318c.932.92 2.047 1.383 3.335 1.383 1.267 0 2.371-.463 3.302-1.383.932-.921 1.401-2.03 1.401-3.318 0-1.289-.469-2.398-1.401-3.319z"/><path d="m282.721 222.493c1.268 0 2.368.462 3.302 1.384.934.923 1.401 2.029 1.401 3.318s-.467 2.395-1.401 3.318c-.934.922-2.034 1.383-3.302 1.383-1.289 0-2.401-.461-3.334-1.383-.934-.923-1.401-2.029-1.401-3.318s.461-2.395 1.384-3.318c.922-.922 2.04-1.384 3.351-1.384z"/><path d="m287.034 238.337c0-.429-.349-.777-.78-.777h-7.02c-.431 0-.78.348-.78.777v26.691c0 18.207-4.242 18.747-8.967 18.651l-.939-.022-.072.002c-.405.028-.724.364-.724.775v5.805c.006.429.361.772.792.766l.321-.007c16.2-.417 18.066-10.076 18.164-24.598l.004-.895z"/><path clip-rule="evenodd" d="m310.916 236.461c10.932 0 19.794 8.829 19.794 19.721s-8.862 19.721-19.794 19.721-19.794-8.829-19.794-19.721 8.862-19.721 19.794-19.721zm-11.402 19.721c0-6.171 5.021-11.173 11.214-11.173 6.194 0 11.214 5.002 11.214 11.173s-5.02 11.173-11.214 11.173c-6.193 0-11.214-5.002-11.214-11.173z" fill-rule="evenodd"/><path clip-rule="evenodd" d="m55.719 257.817.1117-1.891c-.0248-5.984-1.613-10.545-4.7647-13.685-3.1516-3.14-7.3331-4.71-12.5445-4.71-5.385 0-9.7899 1.718-13.2145 5.155-3.4246 3.412-5.1369 8.06-5.1369 13.944 0 5.91 1.6999 10.57 5.0997 13.982 3.4246 3.387 7.9163 5.081 13.4751 5.081 3.7472 0 7.0725-.964 9.976-2.893 2.9283-1.953 5.0377-4.623 6.3281-8.01l-6.477-1.261c-.943 2.002-2.2831 3.56-4.0202 4.672-1.7371 1.113-3.6976 1.669-5.8814 1.669-3.226 0-5.9186-1.038-8.0776-3.115s-3.3005-5.056-3.4246-8.938zm-24.4934-12.461c1.9605-1.607 4.4049-2.411 7.3332-2.411 2.8042 0 5.1121.804 6.9236 2.411 1.8116 1.607 2.8663 3.956 3.1641 7.047h-21.1805c.546-3.116 1.7992-5.465 3.7596-7.047z" fill-rule="evenodd"/><path d="m70.9645 256.593-14.3685 18.395h8.8221l9.9388-13.573 9.8644 13.573h8.7848l-14.4057-18.358 14.4057-18.357h-8.7476l-9.9016 13.61-9.9016-13.61h-8.8593z"/></g></g></svg>
